<?xml version="1.0" encoding="utf-8" standalone="no"?>
<!DOCTYPE svg PUBLIC "-//W3C//DTD SVG 1.1//EN"
  "http://www.w3.org/Graphics/SVG/1.1/DTD/svg11.dtd">
<svg xmlns:xlink="http://www.w3.org/1999/xlink" width="360pt" height="216pt" viewBox="0 0 360 216" xmlns="http://www.w3.org/2000/svg" version="1.1">
 <metadata>
  <rdf:RDF xmlns:dc="http://purl.org/dc/elements/1.1/" xmlns:cc="http://creativecommons.org/ns#" xmlns:rdf="http://www.w3.org/1999/02/22-rdf-syntax-ns#">
   <cc:Work>
    <dc:type rdf:resource="http://purl.org/dc/dcmitype/StillImage"/>
    <dc:date>2023-09-25T11:15:42.138921</dc:date>
    <dc:format>image/svg+xml</dc:format>
    <dc:creator>
     <cc:Agent>
      <dc:title>Matplotlib v3.5.0, https://matplotlib.org/</dc:title>
     </cc:Agent>
    </dc:creator>
   </cc:Work>
  </rdf:RDF>
 </metadata>
 <defs>
  <style type="text/css">*{stroke-linejoin: round; stroke-linecap: butt}</style>
 </defs>
 <g id="figure_1">
  <g id="patch_1">
   <path d="M 0 216 
L 360 216 
L 360 0 
L 0 0 
z
" style="fill: #ffffff"/>
  </g>
  <g id="axes_1">
   <g id="patch_2">
    <path d="M 45 192.24 
L 324 192.24 
L 324 25.92 
L 45 25.92 
z
" style="fill: #ffffff"/>
   </g>
   <g id="patch_3">
    <path d="M 57.681818 192.24 
L 99.954545 192.24 
L 99.954545 176.132146 
L 57.681818 176.132146 
z
" clip-path="url(#p9b67a4e4cd)" style="fill: #1f77b4"/>
   </g>
   <g id="patch_4">
    <path d="M 226.772727 192.24 
L 269.045455 192.24 
L 269.045455 183.31416 
L 226.772727 183.31416 
z
" clip-path="url(#p9b67a4e4cd)" style="fill: #1f77b4"/>
   </g>
   <g id="patch_5">
    <path d="M 99.954545 192.24 
L 142.227273 192.24 
L 142.227273 99.127448 
L 99.954545 99.127448 
z
" clip-path="url(#p9b67a4e4cd)" style="fill: #ff7f0e"/>
   </g>
   <g id="patch_6">
    <path d="M 269.045455 192.24 
L 311.318182 192.24 
L 311.318182 126.326207 
L 269.045455 126.326207 
z
" clip-path="url(#p9b67a4e4cd)" style="fill: #ff7f0e"/>
   </g>
   <g id="matplotlib.axis_1">
    <g id="xtick_1">
     <g id="line2d_1">
      <defs>
       <path id="mf9b9ef9b44" d="M 0 0 
L 0 3.5 
" style="stroke: #000000; stroke-width: 0.8"/>
      </defs>
      <g>
       <use xlink:href="#mf9b9ef9b44" x="99.954545" y="192.24" style="stroke: #000000; stroke-width: 0.8"/>
      </g>
     </g>
     <g id="text_1">
      <!-- MOGP -->
      <g transform="translate(85.425655 206.158498)scale(0.1 -0.1)">
       <defs>
        <path id="CMSS17-4d" d="M 3194 2371 
L 2886 1473 
C 2835 1307 2662 791 2624 587 
L 2618 587 
C 2598 715 2560 849 2458 1174 
C 2400 1365 2336 1562 2272 1741 
L 1325 4416 
L 576 4416 
L 576 0 
L 1075 0 
L 1075 3900 
L 1082 3900 
C 1082 3894 1139 3613 1530 2499 
L 2374 96 
L 2848 96 
L 3610 2231 
C 3661 2378 3821 2843 3891 3066 
C 3955 3257 4115 3728 4154 3913 
L 4160 3913 
L 4160 0 
L 4666 0 
L 4666 4416 
L 3923 4416 
L 3194 2371 
z
" transform="scale(0.015625)"/>
        <path id="CMSS17-4f" d="M 4096 2178 
C 4096 3503 3219 4497 2214 4497 
C 1210 4497 333 3497 333 2178 
C 333 847 1222 -128 2214 -128 
C 3206 -128 4096 847 4096 2178 
z
M 2214 273 
C 1510 273 870 1057 870 2261 
C 870 3433 1549 4096 2214 4096 
C 2880 4096 3558 3433 3558 2261 
C 3558 1051 2912 273 2214 273 
z
" transform="scale(0.015625)"/>
        <path id="CMSS17-47" d="M 3610 1856 
L 2336 1856 
L 2336 1461 
L 3123 1461 
L 3123 471 
C 2874 401 2618 350 2362 350 
C 1466 350 934 1301 934 2200 
C 934 3095 1491 4032 2362 4032 
C 2854 4032 3130 3881 3469 3627 
L 3552 4134 
C 3130 4351 2867 4440 2387 4440 
C 1146 4440 397 3324 397 2182 
C 397 1090 1152 -64 2349 -64 
C 2797 -64 3213 51 3610 248 
L 3610 1856 
z
" transform="scale(0.015625)"/>
        <path id="CMSS17-50" d="M 2106 1856 
C 2874 1856 3501 2453 3501 3158 
C 3501 3850 2899 4453 2067 4453 
L 570 4453 
L 570 0 
L 1107 0 
L 1107 1856 
L 2106 1856 
z
M 1926 4096 
C 2669 4096 2995 3627 2995 3157 
C 2995 2720 2694 2226 1926 2226 
L 1094 2226 
L 1094 4096 
L 1926 4096 
z
" transform="scale(0.015625)"/>
       </defs>
       <use xlink:href="#CMSS17-4d" transform="scale(0.996264)"/>
       <use xlink:href="#CMSS17-4f" transform="translate(81.67603 0)scale(0.996264)"/>
       <use xlink:href="#CMSS17-47" transform="translate(150.700285 0)scale(0.996264)"/>
       <use xlink:href="#CMSS17-50" transform="translate(213.158511 0)scale(0.996264)"/>
      </g>
     </g>
    </g>
    <g id="xtick_2">
     <g id="line2d_2">
      <g>
       <use xlink:href="#mf9b9ef9b44" x="269.045455" y="192.24" style="stroke: #000000; stroke-width: 0.8"/>
      </g>
     </g>
     <g id="text_2">
      <!-- MOEIR -->
      <g transform="translate(253.444185 206.158498)scale(0.1 -0.1)">
       <defs>
        <path id="CMSS17-45" d="M 1958 433 
C 1446 433 1216 433 1101 433 
L 1101 2107 
L 3085 2107 
L 3085 2496 
L 1101 2496 
L 1101 4009 
L 1926 4009 
C 2003 4009 2080 4009 2157 4009 
L 3251 4009 
L 3251 4416 
L 563 4416 
L 563 0 
L 3334 0 
L 3334 433 
L 1958 433 
z
" transform="scale(0.015625)"/>
        <path id="CMSS17-49" d="M 1094 4416 
L 557 4416 
L 557 0 
L 1094 0 
L 1094 4416 
z
" transform="scale(0.015625)"/>
        <path id="CMSS17-52" d="M 2522 2109 
L 2534 2115 
C 3533 2459 3539 3147 3539 3268 
C 3539 3873 2925 4453 2003 4453 
L 570 4453 
L 570 32 
L 1094 32 
L 1094 2048 
L 2035 2048 
L 3168 32 
L 3706 32 
L 2522 2109 
z
M 1094 2437 
L 1094 4096 
L 1933 4096 
C 2746 4096 3034 3637 3034 3267 
C 3034 2922 2778 2437 1933 2437 
L 1094 2437 
z
" transform="scale(0.015625)"/>
       </defs>
       <use xlink:href="#CMSS17-4d" transform="scale(0.996264)"/>
       <use xlink:href="#CMSS17-4f" transform="translate(81.67603 0)scale(0.996264)"/>
       <use xlink:href="#CMSS17-45" transform="translate(150.700285 0)scale(0.996264)"/>
       <use xlink:href="#CMSS17-49" transform="translate(206.592299 0)scale(0.996264)"/>
       <use xlink:href="#CMSS17-52" transform="translate(232.376224 0)scale(0.996264)"/>
      </g>
     </g>
    </g>
   </g>
   <g id="matplotlib.axis_2">
    <g id="ytick_1">
     <g id="line2d_3">
      <defs>
       <path id="med479555ef" d="M 0 0 
L -3.5 0 
" style="stroke: #000000; stroke-width: 0.8"/>
      </defs>
      <g>
       <use xlink:href="#med479555ef" x="45" y="192.24" style="stroke: #000000; stroke-width: 0.8"/>
      </g>
     </g>
     <g id="text_3">
      <!-- $\mathdefault{0.0}$ -->
      <g transform="translate(25.269921 195.699249)scale(0.1 -0.1)">
       <defs>
        <path id="CMR17-30" d="M 2688 2025 
C 2688 2416 2682 3080 2413 3591 
C 2176 4039 1798 4198 1466 4198 
C 1158 4198 768 4058 525 3597 
C 269 3118 243 2524 243 2025 
C 243 1661 250 1106 448 619 
C 723 -39 1216 -128 1466 -128 
C 1760 -128 2208 -7 2470 600 
C 2662 1042 2688 1559 2688 2025 
z
M 1466 -26 
C 1056 -26 813 325 723 812 
C 653 1188 653 1738 653 2096 
C 653 2588 653 2997 736 3387 
C 858 3929 1216 4096 1466 4096 
C 1728 4096 2067 3923 2189 3400 
C 2272 3036 2278 2607 2278 2096 
C 2278 1680 2278 1169 2202 792 
C 2067 95 1690 -26 1466 -26 
z
" transform="scale(0.015625)"/>
        <path id="CMMI12-3a" d="M 1178 307 
C 1178 492 1024 619 870 619 
C 685 619 557 466 557 313 
C 557 128 710 0 864 0 
C 1050 0 1178 153 1178 307 
z
" transform="scale(0.015625)"/>
       </defs>
       <use xlink:href="#CMR17-30" transform="scale(0.996264)"/>
       <use xlink:href="#CMMI12-3a" transform="translate(45.690477 0)scale(0.996264)"/>
       <use xlink:href="#CMR17-30" transform="translate(72.787654 0)scale(0.996264)"/>
      </g>
     </g>
    </g>
    <g id="ytick_2">
     <g id="line2d_4">
      <g>
       <use xlink:href="#med479555ef" x="45" y="158.976" style="stroke: #000000; stroke-width: 0.8"/>
      </g>
     </g>
     <g id="text_4">
      <!-- $\mathdefault{0.2}$ -->
      <g transform="translate(25.269921 162.435249)scale(0.1 -0.1)">
       <defs>
        <path id="CMR17-32" d="M 2669 989 
L 2554 989 
C 2490 536 2438 459 2413 420 
C 2381 369 1920 369 1830 369 
L 602 369 
C 832 619 1280 1072 1824 1597 
C 2214 1967 2669 2402 2669 3035 
C 2669 3790 2067 4224 1395 4224 
C 691 4224 262 3604 262 3030 
C 262 2780 448 2748 525 2748 
C 589 2748 781 2787 781 3010 
C 781 3207 614 3264 525 3264 
C 486 3264 448 3258 422 3245 
C 544 3790 915 4058 1306 4058 
C 1862 4058 2227 3617 2227 3035 
C 2227 2479 1901 2000 1536 1584 
L 262 146 
L 262 0 
L 2515 0 
L 2669 989 
z
" transform="scale(0.015625)"/>
       </defs>
       <use xlink:href="#CMR17-30" transform="scale(0.996264)"/>
       <use xlink:href="#CMMI12-3a" transform="translate(45.690477 0)scale(0.996264)"/>
       <use xlink:href="#CMR17-32" transform="translate(72.787654 0)scale(0.996264)"/>
      </g>
     </g>
    </g>
    <g id="ytick_3">
     <g id="line2d_5">
      <g>
       <use xlink:href="#med479555ef" x="45" y="125.712" style="stroke: #000000; stroke-width: 0.8"/>
      </g>
     </g>
     <g id="text_5">
      <!-- $\mathdefault{0.4}$ -->
      <g transform="translate(25.269921 129.171249)scale(0.1 -0.1)">
       <defs>
        <path id="CMR17-34" d="M 2150 4122 
C 2150 4256 2144 4256 2029 4256 
L 128 1254 
L 128 1088 
L 1779 1088 
L 1779 457 
C 1779 224 1766 160 1318 160 
L 1197 160 
L 1197 0 
C 1402 0 1747 0 1965 0 
C 2182 0 2528 0 2733 0 
L 2733 160 
L 2611 160 
C 2163 160 2150 224 2150 457 
L 2150 1088 
L 2803 1088 
L 2803 1254 
L 2150 1254 
L 2150 4122 
z
M 1798 3703 
L 1798 1254 
L 256 1254 
L 1798 3703 
z
" transform="scale(0.015625)"/>
       </defs>
       <use xlink:href="#CMR17-30" transform="scale(0.996264)"/>
       <use xlink:href="#CMMI12-3a" transform="translate(45.690477 0)scale(0.996264)"/>
       <use xlink:href="#CMR17-34" transform="translate(72.787654 0)scale(0.996264)"/>
      </g>
     </g>
    </g>
    <g id="ytick_4">
     <g id="line2d_6">
      <g>
       <use xlink:href="#med479555ef" x="45" y="92.448" style="stroke: #000000; stroke-width: 0.8"/>
      </g>
     </g>
     <g id="text_6">
      <!-- $\mathdefault{0.6}$ -->
      <g transform="translate(25.269921 95.907249)scale(0.1 -0.1)">
       <defs>
        <path id="CMR17-36" d="M 678 2176 
C 678 3690 1395 4032 1811 4032 
C 1946 4032 2272 4009 2400 3776 
C 2298 3776 2106 3776 2106 3553 
C 2106 3381 2246 3323 2336 3323 
C 2394 3323 2566 3348 2566 3560 
C 2566 3954 2246 4179 1805 4179 
C 1043 4179 243 3390 243 1984 
C 243 253 966 -128 1478 -128 
C 2099 -128 2688 427 2688 1283 
C 2688 2081 2170 2662 1517 2662 
C 1126 2662 838 2407 678 1960 
L 678 2176 
z
M 1478 25 
C 691 25 691 1200 691 1436 
C 691 1896 909 2560 1504 2560 
C 1613 2560 1926 2560 2138 2120 
C 2253 1870 2253 1609 2253 1289 
C 2253 944 2253 690 2118 434 
C 1978 171 1773 25 1478 25 
z
" transform="scale(0.015625)"/>
       </defs>
       <use xlink:href="#CMR17-30" transform="scale(0.996264)"/>
       <use xlink:href="#CMMI12-3a" transform="translate(45.690477 0)scale(0.996264)"/>
       <use xlink:href="#CMR17-36" transform="translate(72.787654 0)scale(0.996264)"/>
      </g>
     </g>
    </g>
    <g id="ytick_5">
     <g id="line2d_7">
      <g>
       <use xlink:href="#med479555ef" x="45" y="59.184" style="stroke: #000000; stroke-width: 0.8"/>
      </g>
     </g>
     <g id="text_7">
      <!-- $\mathdefault{0.8}$ -->
      <g transform="translate(25.269921 62.643249)scale(0.1 -0.1)">
       <defs>
        <path id="CMR17-38" d="M 1741 2264 
C 2144 2467 2554 2773 2554 3263 
C 2554 3841 1990 4179 1472 4179 
C 890 4179 378 3759 378 3180 
C 378 3021 416 2747 666 2505 
C 730 2442 998 2251 1171 2130 
C 883 1983 211 1634 211 934 
C 211 279 838 -128 1459 -128 
C 2144 -128 2720 362 2720 1010 
C 2720 1590 2330 1857 2074 2029 
L 1741 2264 
z
M 902 2822 
C 851 2854 595 3051 595 3351 
C 595 3739 998 4032 1459 4032 
C 1965 4032 2336 3676 2336 3262 
C 2336 2669 1670 2331 1638 2331 
C 1632 2331 1626 2331 1574 2370 
L 902 2822 
z
M 2080 1519 
C 2176 1449 2483 1240 2483 851 
C 2483 381 2010 25 1472 25 
C 890 25 448 438 448 940 
C 448 1443 838 1862 1280 2060 
L 2080 1519 
z
" transform="scale(0.015625)"/>
       </defs>
       <use xlink:href="#CMR17-30" transform="scale(0.996264)"/>
       <use xlink:href="#CMMI12-3a" transform="translate(45.690477 0)scale(0.996264)"/>
       <use xlink:href="#CMR17-38" transform="translate(72.787654 0)scale(0.996264)"/>
      </g>
     </g>
    </g>
    <g id="ytick_6">
     <g id="line2d_8">
      <g>
       <use xlink:href="#med479555ef" x="45" y="25.92" style="stroke: #000000; stroke-width: 0.8"/>
      </g>
     </g>
     <g id="text_8">
      <!-- $\mathdefault{1.0}$ -->
      <g transform="translate(25.269921 29.379249)scale(0.1 -0.1)">
       <defs>
        <path id="CMR17-31" d="M 1702 4058 
C 1702 4192 1696 4192 1606 4192 
C 1357 3916 979 3827 621 3827 
C 602 3827 570 3827 563 3808 
C 557 3795 557 3782 557 3648 
C 755 3648 1088 3686 1344 3839 
L 1344 461 
C 1344 236 1331 160 781 160 
L 589 160 
L 589 0 
C 896 0 1216 0 1523 0 
C 1830 0 2150 0 2458 0 
L 2458 160 
L 2266 160 
C 1715 160 1702 230 1702 458 
L 1702 4058 
z
" transform="scale(0.015625)"/>
       </defs>
       <use xlink:href="#CMR17-31" transform="scale(0.996264)"/>
       <use xlink:href="#CMMI12-3a" transform="translate(45.690477 0)scale(0.996264)"/>
       <use xlink:href="#CMR17-30" transform="translate(72.787654 0)scale(0.996264)"/>
      </g>
     </g>
    </g>
    <g id="text_9">
     <!-- $$\overline{\overline{\textit{Precision@10}}}$$ -->
     <g transform="translate(18.945325 140.675035)rotate(-90)scale(0.12 -0.12)">
      <defs>
       <path id="CMSSI17-50" d="M 1498 1856 
L 2502 1856 
C 3373 1856 4198 2626 4198 3401 
C 4198 3947 3782 4453 3008 4453 
L 1517 4453 
L 570 0 
L 1107 0 
L 1498 1856 
z
M 1965 4096 
L 2797 4096 
C 3405 4096 3686 3775 3686 3363 
C 3686 2869 3270 2226 2400 2226 
L 1568 2226 
L 1965 4096 
z
" transform="scale(0.015625)"/>
       <path id="CMSSI17-72" d="M 1190 1120 
C 1286 1549 1325 1754 1619 2035 
C 1728 2138 2016 2368 2464 2368 
L 2554 2789 
C 1952 2789 1600 2433 1414 2253 
L 1523 2763 
L 1069 2763 
L 480 0 
L 954 0 
L 1190 1120 
z
" transform="scale(0.015625)"/>
       <path id="CMSSI17-65" d="M 2803 1377 
C 2842 1545 2861 1719 2861 1893 
C 2861 2655 2374 2816 2022 2816 
C 1229 2816 454 1945 454 1050 
C 454 352 922 -64 1498 -64 
C 1760 -64 2118 0 2528 248 
L 2573 655 
C 2144 356 1747 325 1594 325 
C 1165 325 915 660 915 1104 
C 915 1377 934 1377 1062 1377 
L 2803 1377 
z
M 1069 1728 
C 1274 2159 1632 2427 1933 2427 
C 2458 2427 2458 1884 2458 1728 
L 1069 1728 
z
" transform="scale(0.015625)"/>
       <path id="CMSSI17-63" d="M 3014 2560 
C 2707 2765 2509 2816 2144 2816 
C 1178 2816 467 1850 467 1037 
C 467 454 832 -64 1510 -64 
C 1952 -64 2291 89 2560 243 
C 2573 383 2592 524 2605 664 
C 2477 580 2106 337 1600 337 
C 1210 337 960 601 960 1069 
C 960 1645 1338 2414 2061 2414 
C 2368 2414 2560 2370 2854 2151 
L 3014 2560 
z
" transform="scale(0.015625)"/>
       <path id="CMSSI17-69" d="M 1869 4183 
L 1331 4183 
L 1222 3648 
L 1760 3648 
L 1869 4183 
z
M 474 0 
L 947 0 
L 1530 2732 
L 1056 2732 
L 474 0 
z
" transform="scale(0.015625)"/>
       <path id="CMSSI17-73" d="M 2618 2623 
C 2374 2750 2138 2814 1798 2814 
C 768 2814 614 2078 614 1861 
C 614 1342 1133 1233 1331 1189 
C 1664 1118 1882 1073 1882 811 
C 1882 690 1792 337 1248 337 
C 1037 337 685 382 384 638 
L 218 210 
C 429 63 762 -64 1165 -64 
C 2138 -64 2349 659 2349 947 
C 2349 1497 1824 1606 1574 1658 
C 1293 1715 1082 1760 1082 1996 
C 1082 2015 1082 2432 1658 2432 
C 1926 2432 2176 2381 2458 2214 
L 2618 2623 
z
" transform="scale(0.015625)"/>
       <path id="CMSSI17-6f" d="M 3155 1683 
C 3155 2368 2701 2816 2099 2816 
C 1248 2816 429 1933 429 1037 
C 429 403 864 -64 1491 -64 
C 2330 -64 3155 762 3155 1683 
z
M 1574 337 
C 1210 337 922 588 922 1081 
C 922 1761 1370 2427 2016 2427 
C 2400 2427 2682 2170 2682 1716 
C 2682 1120 2266 337 1574 337 
z
" transform="scale(0.015625)"/>
       <path id="CMSSI17-6e" d="M 3021 1904 
C 3046 2012 3053 2070 3053 2228 
C 3053 2629 2829 2820 2387 2820 
C 1843 2820 1472 2419 1446 2393 
L 1530 2788 
L 1062 2788 
L 474 32 
L 960 32 
L 1254 1407 
C 1312 1681 1478 2432 2061 2432 
C 2400 2432 2547 2298 2547 2049 
C 2547 1960 2541 1935 2534 1903 
L 2131 32 
L 2618 32 
L 3021 1904 
z
" transform="scale(0.015625)"/>
       <path id="CMSSI17-40" d="M 3482 541 
C 3386 541 3373 541 3322 516 
C 2950 363 2650 325 2426 325 
C 1632 325 1235 1017 1235 1721 
C 1235 2952 2246 4092 3194 4092 
C 3526 4092 3731 3867 3776 3508 
C 3712 3552 3552 3648 3322 3648 
C 2605 3648 1856 2756 1856 1821 
C 1856 1206 2214 763 2714 763 
C 3117 763 3578 1046 3904 1584 
C 4218 2115 4288 3102 4288 3282 
C 4288 3756 4166 4480 3277 4480 
C 2048 4480 749 3155 749 1677 
C 749 602 1446 -64 2330 -64 
C 2886 -64 3437 210 3782 541 
L 3482 541 
z
M 2797 1152 
C 2560 1152 2349 1377 2349 1859 
C 2349 2565 2822 3259 3238 3259 
C 3578 3259 3693 2868 3693 2559 
C 3693 1878 3238 1152 2797 1152 
z
" transform="scale(0.015625)"/>
       <path id="CMSSI17-31" d="M 2733 4288 
L 2605 4288 
C 2170 3896 1613 3896 1363 3896 
L 1286 3520 
C 1459 3520 1786 3520 2099 3667 
L 1402 369 
L 653 369 
L 570 0 
L 2573 0 
L 2650 369 
L 1894 369 
L 2733 4288 
z
" transform="scale(0.015625)"/>
       <path id="CMSSI17-30" d="M 3334 3038 
C 3334 3248 3334 4229 2413 4229 
C 1574 4229 1165 3412 1043 3165 
C 794 2677 557 1620 557 1056 
C 557 854 557 -128 1478 -128 
C 1978 -128 2451 169 2790 809 
C 3130 1430 3334 2538 3334 3038 
z
M 1562 261 
C 1037 261 1037 899 1037 1057 
C 1037 1582 1299 2639 1402 2936 
C 1491 3164 1766 3840 2330 3840 
C 2874 3840 2874 3220 2874 3076 
C 2874 2645 2630 1500 2426 1038 
C 2355 880 2080 261 1562 261 
z
" transform="scale(0.015625)"/>
      </defs>
      <use xlink:href="#CMSSI17-50" transform="scale(0.996264)"/>
      <use xlink:href="#CMSSI17-72" transform="translate(59.735586 0)scale(0.996264)"/>
      <use xlink:href="#CMSSI17-65" transform="translate(91.645359 0)scale(0.996264)"/>
      <use xlink:href="#CMSSI17-63" transform="translate(133.284181 0)scale(0.996264)"/>
      <use xlink:href="#CMSSI17-69" transform="translate(174.923003 0)scale(0.996264)"/>
      <use xlink:href="#CMSSI17-73" transform="translate(197.103726 0)scale(0.996264)"/>
      <use xlink:href="#CMSSI17-69" transform="translate(233.017268 0)scale(0.996264)"/>
      <use xlink:href="#CMSSI17-6f" transform="translate(255.197991 0)scale(0.996264)"/>
      <use xlink:href="#CMSSI17-6e" transform="translate(302.041615 0)scale(0.996264)"/>
      <use xlink:href="#CMSSI17-40" transform="translate(350.246558 0)scale(0.996264)"/>
      <use xlink:href="#CMSSI17-31" transform="translate(412.704783 0)scale(0.996264)"/>
      <use xlink:href="#CMSSI17-30" transform="translate(459.548407 0)scale(0.996264)"/>
      <path d="M 0 101.064611 
L 506.39203 101.064611 
L 506.39203 105.049561 
L 0 105.049561 
L 0 101.064611 
z
"/>
      <path d="M 0 81.139863 
L 506.39203 81.139863 
L 506.39203 85.124813 
L 0 85.124813 
L 0 81.139863 
z
"/>
     </g>
    </g>
   </g>
   <g id="LineCollection_1">
    <path d="M 78.818182 182.63446 
L 78.818182 169.629831 
" clip-path="url(#p9b67a4e4cd)" style="fill: none; stroke: #000000; stroke-width: 1.5"/>
    <path d="M 247.909091 187.254562 
L 247.909091 179.373758 
" clip-path="url(#p9b67a4e4cd)" style="fill: none; stroke: #000000; stroke-width: 1.5"/>
   </g>
   <g id="line2d_9">
    <defs>
     <path id="mc25336fbbf" d="M 6 0 
L -6 -0 
" style="stroke: #000000"/>
    </defs>
    <g clip-path="url(#p9b67a4e4cd)">
     <use xlink:href="#mc25336fbbf" x="78.818182" y="182.63446" style="stroke: #000000"/>
     <use xlink:href="#mc25336fbbf" x="247.909091" y="187.254562" style="stroke: #000000"/>
    </g>
   </g>
   <g id="line2d_10">
    <g clip-path="url(#p9b67a4e4cd)">
     <use xlink:href="#mc25336fbbf" x="78.818182" y="169.629831" style="stroke: #000000"/>
     <use xlink:href="#mc25336fbbf" x="247.909091" y="179.373758" style="stroke: #000000"/>
    </g>
   </g>
   <g id="LineCollection_2">
    <path d="M 121.090909 116.078719 
L 121.090909 82.176177 
" clip-path="url(#p9b67a4e4cd)" style="fill: none; stroke: #000000; stroke-width: 1.5"/>
    <path d="M 290.181818 140.262196 
L 290.181818 112.390217 
" clip-path="url(#p9b67a4e4cd)" style="fill: none; stroke: #000000; stroke-width: 1.5"/>
   </g>
   <g id="line2d_11">
    <g clip-path="url(#p9b67a4e4cd)">
     <use xlink:href="#mc25336fbbf" x="121.090909" y="116.078719" style="stroke: #000000"/>
     <use xlink:href="#mc25336fbbf" x="290.181818" y="140.262196" style="stroke: #000000"/>
    </g>
   </g>
   <g id="line2d_12">
    <g clip-path="url(#p9b67a4e4cd)">
     <use xlink:href="#mc25336fbbf" x="121.090909" y="82.176177" style="stroke: #000000"/>
     <use xlink:href="#mc25336fbbf" x="290.181818" y="112.390217" style="stroke: #000000"/>
    </g>
   </g>
   <g id="patch_7">
    <path d="M 45 192.24 
L 45 25.92 
" style="fill: none; stroke: #000000; stroke-width: 0.8; stroke-linejoin: miter; stroke-linecap: square"/>
   </g>
   <g id="patch_8">
    <path d="M 324 192.24 
L 324 25.92 
" style="fill: none; stroke: #000000; stroke-width: 0.8; stroke-linejoin: miter; stroke-linecap: square"/>
   </g>
   <g id="patch_9">
    <path d="M 45 192.24 
L 324 192.24 
" style="fill: none; stroke: #000000; stroke-width: 0.8; stroke-linejoin: miter; stroke-linecap: square"/>
   </g>
   <g id="patch_10">
    <path d="M 45 25.92 
L 324 25.92 
" style="fill: none; stroke: #000000; stroke-width: 0.8; stroke-linejoin: miter; stroke-linecap: square"/>
   </g>
   <g id="text_10">
    <!-- 0.0968486 -->
    <g transform="translate(57.509137 164.692653)scale(0.1 -0.1)">
     <defs>
      <path id="CMSS17-30" d="M 2758 2044 
C 2758 2405 2752 3077 2490 3596 
C 2227 4096 1805 4229 1504 4229 
C 1069 4229 698 3975 506 3570 
C 301 3146 243 2709 243 2044 
C 243 1589 262 1031 493 543 
C 755 5 1197 -128 1498 -128 
C 1894 -128 2278 81 2496 518 
C 2720 974 2758 1474 2758 2044 
z
M 1498 261 
C 1011 261 864 811 819 995 
C 742 1310 730 1614 730 2114 
C 730 2506 730 2948 851 3297 
C 998 3701 1254 3840 1498 3840 
C 1971 3840 2125 3372 2176 3208 
C 2272 2873 2272 2481 2272 2114 
C 2272 1526 2272 261 1498 261 
z
" transform="scale(0.015625)"/>
      <path id="CMSS17-2e" d="M 1088 510 
L 576 510 
L 576 0 
L 1088 0 
L 1088 510 
z
" transform="scale(0.015625)"/>
      <path id="CMSS17-39" d="M 435 174 
C 614 21 845 -128 1235 -128 
C 2010 -128 2752 721 2752 2095 
C 2752 3932 1952 4229 1523 4229 
C 1094 4229 819 4041 582 3741 
C 301 3397 250 3090 250 2733 
C 250 2307 326 2045 506 1745 
C 749 1357 973 1275 1222 1275 
C 1600 1275 1978 1459 2234 1776 
C 2189 902 1798 267 1235 267 
C 1005 267 819 339 634 516 
L 435 174 
z
M 2214 2746 
C 2221 2703 2221 2622 2221 2596 
C 2221 2074 1914 1664 1466 1664 
C 1171 1664 1018 1813 902 2006 
C 762 2249 755 2485 755 2733 
C 755 2976 755 3244 934 3511 
C 1069 3703 1235 3840 1523 3840 
C 2112 3840 2208 3000 2214 2746 
z
" transform="scale(0.015625)"/>
      <path id="CMSS17-36" d="M 2496 4101 
C 2227 4210 2035 4229 1856 4229 
C 1024 4229 250 3368 250 2006 
C 250 265 986 -128 1510 -128 
C 1798 -128 2086 -39 2362 280 
C 2643 617 2752 898 2752 1389 
C 2752 2179 2362 2880 1779 2880 
C 1357 2880 992 2657 768 2376 
C 832 3258 1254 3840 1862 3840 
C 2029 3840 2246 3816 2496 3710 
L 2496 4101 
z
M 774 1369 
C 774 1420 774 1452 781 1548 
C 781 2045 1069 2491 1536 2491 
C 1837 2491 1990 2332 2106 2135 
C 2240 1886 2246 1650 2246 1388 
C 2246 1140 2246 891 2099 637 
C 1978 439 1818 267 1510 267 
C 902 267 800 1114 774 1369 
z
" transform="scale(0.015625)"/>
      <path id="CMSS17-38" d="M 1933 2222 
C 2419 2380 2669 2760 2669 3134 
C 2669 3722 2157 4229 1504 4229 
C 826 4229 333 3708 333 3144 
C 333 2780 576 2403 1069 2241 
C 442 1997 250 1512 250 1149 
C 250 446 819 -128 1498 -128 
C 2202 -128 2752 455 2752 1138 
C 2752 1557 2502 2000 1933 2222 
z
M 1504 2432 
C 1075 2432 787 2712 787 3136 
C 787 3566 1075 3840 1504 3840 
C 1901 3840 2214 3591 2214 3136 
C 2214 2687 1907 2432 1504 2432 
z
M 1504 267 
C 1139 267 749 517 749 1156 
C 749 1813 1184 2043 1498 2043 
C 1843 2043 2253 1800 2253 1156 
C 2253 491 1830 267 1504 267 
z
" transform="scale(0.015625)"/>
      <path id="CMSS17-34" d="M 2253 1088 
L 2835 1088 
L 2835 1477 
L 2253 1477 
L 2253 4192 
L 1690 4192 
L 166 1477 
L 166 1088 
L 1747 1088 
L 1747 0 
L 2253 0 
L 2253 1088 
z
M 659 1477 
C 1030 2127 1766 3439 1766 3885 
L 1766 1477 
L 659 1477 
z
" transform="scale(0.015625)"/>
     </defs>
     <use xlink:href="#CMSS17-30" transform="scale(0.996264)"/>
     <use xlink:href="#CMSS17-2e" transform="translate(46.843624 0)scale(0.996264)"/>
     <use xlink:href="#CMSS17-30" transform="translate(72.867828 0)scale(0.996264)"/>
     <use xlink:href="#CMSS17-39" transform="translate(119.711452 0)scale(0.996264)"/>
     <use xlink:href="#CMSS17-36" transform="translate(166.555075 0)scale(0.996264)"/>
     <use xlink:href="#CMSS17-38" transform="translate(213.398699 0)scale(0.996264)"/>
     <use xlink:href="#CMSS17-34" transform="translate(260.242322 0)scale(0.996264)"/>
     <use xlink:href="#CMSS17-38" transform="translate(307.085946 0)scale(0.996264)"/>
     <use xlink:href="#CMSS17-36" transform="translate(353.92957 0)scale(0.996264)"/>
    </g>
   </g>
   <g id="text_11">
    <!-- 0.0536667 -->
    <g transform="translate(226.600046 174.43658)scale(0.1 -0.1)">
     <defs>
      <path id="CMSS17-35" d="M 934 3752 
L 2502 3752 
L 2502 4160 
L 467 4160 
L 467 1781 
L 896 1781 
C 1011 2046 1248 2240 1555 2240 
C 1843 2240 2163 1989 2163 1266 
C 2163 493 1709 267 1376 267 
C 966 267 589 512 422 851 
L 218 499 
C 512 49 992 -128 1376 -128 
C 2118 -128 2701 497 2701 1253 
C 2701 2030 2182 2629 1562 2629 
C 1338 2629 1120 2553 934 2399 
L 934 3752 
z
" transform="scale(0.015625)"/>
      <path id="CMSS17-33" d="M 1005 2025 
L 1440 2025 
C 2042 2025 2214 1507 2214 1146 
C 2214 653 1933 267 1472 267 
C 1114 267 608 444 320 912 
C 275 691 275 678 250 526 
C 550 88 1037 -128 1485 -128 
C 2214 -128 2752 473 2752 1138 
C 2752 1638 2400 2057 1920 2215 
C 2304 2424 2586 2816 2586 3273 
C 2586 3805 2093 4229 1491 4229 
C 941 4229 512 3892 333 3530 
C 378 3468 493 3284 550 3189 
C 691 3562 1056 3840 1485 3840 
C 1843 3840 2080 3607 2080 3271 
C 2080 2923 1856 2543 1478 2455 
C 1453 2455 1056 2417 1005 2411 
L 1005 2025 
z
" transform="scale(0.015625)"/>
      <path id="CMSS17-37" d="M 1389 3776 
C 1466 3776 1542 3776 1619 3776 
L 2355 3776 
C 1440 2711 915 1365 915 -32 
L 1427 -32 
C 1427 1323 1875 2696 2752 3795 
L 2752 4209 
L 250 4209 
L 250 3776 
L 1389 3776 
z
" transform="scale(0.015625)"/>
     </defs>
     <use xlink:href="#CMSS17-30" transform="scale(0.996264)"/>
     <use xlink:href="#CMSS17-2e" transform="translate(46.843624 0)scale(0.996264)"/>
     <use xlink:href="#CMSS17-30" transform="translate(72.867828 0)scale(0.996264)"/>
     <use xlink:href="#CMSS17-35" transform="translate(119.711452 0)scale(0.996264)"/>
     <use xlink:href="#CMSS17-33" transform="translate(166.555075 0)scale(0.996264)"/>
     <use xlink:href="#CMSS17-36" transform="translate(213.398699 0)scale(0.996264)"/>
     <use xlink:href="#CMSS17-36" transform="translate(260.242322 0)scale(0.996264)"/>
     <use xlink:href="#CMSS17-36" transform="translate(307.085946 0)scale(0.996264)"/>
     <use xlink:href="#CMSS17-37" transform="translate(353.92957 0)scale(0.996264)"/>
    </g>
   </g>
   <g id="text_12">
    <!-- 0.55984 -->
    <g transform="translate(104.763199 77.238999)scale(0.1 -0.1)">
     <use xlink:href="#CMSS17-30" transform="scale(0.996264)"/>
     <use xlink:href="#CMSS17-2e" transform="translate(46.843624 0)scale(0.996264)"/>
     <use xlink:href="#CMSS17-35" transform="translate(72.867828 0)scale(0.996264)"/>
     <use xlink:href="#CMSS17-35" transform="translate(119.711452 0)scale(0.996264)"/>
     <use xlink:href="#CMSS17-39" transform="translate(166.555075 0)scale(0.996264)"/>
     <use xlink:href="#CMSS17-38" transform="translate(213.398699 0)scale(0.996264)"/>
     <use xlink:href="#CMSS17-34" transform="translate(260.242322 0)scale(0.996264)"/>
    </g>
   </g>
   <g id="text_13">
    <!-- 0.396307 -->
    <g transform="translate(271.363441 107.453038)scale(0.1 -0.1)">
     <use xlink:href="#CMSS17-30" transform="scale(0.996264)"/>
     <use xlink:href="#CMSS17-2e" transform="translate(46.843624 0)scale(0.996264)"/>
     <use xlink:href="#CMSS17-33" transform="translate(72.867828 0)scale(0.996264)"/>
     <use xlink:href="#CMSS17-39" transform="translate(119.711452 0)scale(0.996264)"/>
     <use xlink:href="#CMSS17-36" transform="translate(166.555075 0)scale(0.996264)"/>
     <use xlink:href="#CMSS17-33" transform="translate(213.398699 0)scale(0.996264)"/>
     <use xlink:href="#CMSS17-30" transform="translate(260.242322 0)scale(0.996264)"/>
     <use xlink:href="#CMSS17-37" transform="translate(307.085946 0)scale(0.996264)"/>
    </g>
   </g>
   <g id="legend_1">
    <g id="patch_11">
     <path d="M 167.925609 47.857178 
L 317 47.857178 
Q 319 47.857178 319 45.857178 
L 319 32.92 
Q 319 30.92 317 30.92 
L 167.925609 30.92 
Q 165.925609 30.92 165.925609 32.92 
L 165.925609 45.857178 
Q 165.925609 47.857178 167.925609 47.857178 
z
" style="fill: #ffffff; opacity: 0.8; stroke: #cccccc; stroke-linejoin: miter"/>
    </g>
    <g id="patch_12">
     <path d="M 169.925609 41.92 
L 189.925609 41.92 
L 189.925609 34.92 
L 169.925609 34.92 
z
" style="fill: #1f77b4"/>
    </g>
    <g id="text_14">
     <!-- 1st Gen -->
     <g transform="translate(197.925609 41.92)scale(0.1 -0.1)">
      <defs>
       <path id="CMSS17-31" d="M 1818 4288 
L 1696 4288 
C 1350 3940 947 3890 538 3890 
L 538 3520 
C 723 3520 1024 3520 1325 3667 
L 1325 369 
L 570 369 
L 570 0 
L 2573 0 
L 2573 369 
L 1818 369 
L 1818 4288 
z
" transform="scale(0.015625)"/>
       <path id="CMSS17-73" d="M 2061 2627 
C 1683 2807 1389 2807 1197 2807 
C 742 2807 198 2648 198 2003 
C 198 1359 902 1218 1094 1179 
C 1389 1122 1715 1058 1715 740 
C 1715 337 1254 337 1171 337 
C 915 337 563 407 243 638 
L 166 210 
C 531 0 883 -64 1178 -64 
C 1965 -64 2163 416 2163 781 
C 2163 1094 1984 1305 1862 1401 
C 1651 1568 1574 1587 1050 1696 
C 960 1709 646 1779 646 2066 
C 646 2432 1050 2432 1139 2432 
C 1555 2432 1811 2303 1984 2208 
L 2061 2627 
z
" transform="scale(0.015625)"/>
       <path id="CMSS17-74" d="M 1069 2368 
L 1901 2368 
L 1901 2737 
L 1069 2737 
L 1069 3520 
L 614 3520 
L 614 2737 
L 109 2737 
L 109 2368 
L 602 2368 
L 602 749 
C 602 384 685 -64 1107 -64 
C 1427 -64 1722 25 2003 172 
L 1901 548 
C 1747 414 1562 337 1363 337 
C 1082 337 1069 696 1069 856 
L 1069 2368 
z
" transform="scale(0.015625)"/>
       <path id="CMSS17-65" d="M 2502 1377 
C 2502 1590 2490 2003 2285 2345 
C 2061 2713 1696 2816 1421 2816 
C 755 2816 192 2188 192 1375 
C 192 582 774 -64 1510 -64 
C 1798 -64 2150 19 2470 248 
C 2470 274 2458 414 2451 420 
C 2451 433 2432 630 2432 656 
C 2125 407 1773 325 1517 325 
C 1107 325 666 667 646 1377 
L 2502 1377 
z
M 698 1728 
C 781 2084 1062 2421 1421 2421 
C 1517 2421 1965 2421 2080 1728 
L 698 1728 
z
" transform="scale(0.015625)"/>
       <path id="CMSS17-6e" d="M 2618 1877 
C 2618 2283 2522 2816 1798 2816 
C 1389 2816 1120 2606 941 2389 
L 941 2758 
L 474 2758 
L 474 0 
L 960 0 
L 960 1559 
C 960 1964 1114 2428 1549 2428 
C 2112 2428 2131 2048 2131 1829 
L 2131 0 
L 2618 0 
L 2618 1877 
z
" transform="scale(0.015625)"/>
      </defs>
      <use xlink:href="#CMSS17-31" transform="scale(0.996264)"/>
      <use xlink:href="#CMSS17-73" transform="translate(46.843624 0)scale(0.996264)"/>
      <use xlink:href="#CMSS17-74" transform="translate(82.757166 0)scale(0.996264)"/>
      <use xlink:href="#CMSS17-47" transform="translate(147.817845 0)scale(0.996264)"/>
      <use xlink:href="#CMSS17-65" transform="translate(210.27607 0)scale(0.996264)"/>
      <use xlink:href="#CMSS17-6e" transform="translate(251.914893 0)scale(0.996264)"/>
     </g>
    </g>
    <g id="patch_13">
     <path d="M 249.861438 41.92 
L 269.861438 41.92 
L 269.861438 34.92 
L 249.861438 34.92 
z
" style="fill: #ff7f0e"/>
    </g>
    <g id="text_15">
     <!-- Last Gen -->
     <g transform="translate(277.861438 41.92)scale(0.1 -0.1)">
      <defs>
       <path id="CMSS17-4c" d="M 1670 414 
C 1594 414 1517 414 1440 414 
L 1101 414 
L 1101 4416 
L 563 4416 
L 563 0 
L 3002 0 
L 3002 414 
L 1670 414 
z
" transform="scale(0.015625)"/>
       <path id="CMSS17-61" d="M 2406 1791 
C 2406 2392 1978 2808 1402 2808 
C 1120 2808 813 2757 461 2553 
L 499 2135 
C 659 2248 934 2432 1395 2432 
C 1722 2432 1920 2180 1920 1782 
L 1920 1536 
C 896 1536 256 1238 256 726 
C 256 461 416 -64 947 -64 
C 1043 -64 1562 -64 1933 217 
L 1933 -19 
L 2406 -19 
L 2406 1791 
z
M 1920 816 
C 1920 701 1920 548 1728 434 
C 1562 325 1350 325 1261 325 
C 941 325 723 511 723 744 
C 723 1211 1722 1211 1920 1211 
L 1920 816 
z
" transform="scale(0.015625)"/>
      </defs>
      <use xlink:href="#CMSS17-4c" transform="scale(0.996264)"/>
      <use xlink:href="#CMSS17-61" transform="translate(50.687105 0)scale(0.996264)"/>
      <use xlink:href="#CMSS17-73" transform="translate(95.609026 0)scale(0.996264)"/>
      <use xlink:href="#CMSS17-74" transform="translate(131.522568 0)scale(0.996264)"/>
      <use xlink:href="#CMSS17-47" transform="translate(196.583247 0)scale(0.996264)"/>
      <use xlink:href="#CMSS17-65" transform="translate(259.041473 0)scale(0.996264)"/>
      <use xlink:href="#CMSS17-6e" transform="translate(300.680295 0)scale(0.996264)"/>
     </g>
    </g>
   </g>
  </g>
 </g>
 <defs>
  <clipPath id="p9b67a4e4cd">
   <rect x="45" y="25.92" width="279" height="166.32"/>
  </clipPath>
 </defs>
</svg>
