<?xml version="1.0" encoding="utf-8" standalone="no"?>
<!DOCTYPE svg PUBLIC "-//W3C//DTD SVG 1.1//EN"
  "http://www.w3.org/Graphics/SVG/1.1/DTD/svg11.dtd">
<svg xmlns:xlink="http://www.w3.org/1999/xlink" width="720pt" height="216pt" viewBox="0 0 720 216" xmlns="http://www.w3.org/2000/svg" version="1.1">
 <metadata>
  <rdf:RDF xmlns:dc="http://purl.org/dc/elements/1.1/" xmlns:cc="http://creativecommons.org/ns#" xmlns:rdf="http://www.w3.org/1999/02/22-rdf-syntax-ns#">
   <cc:Work>
    <dc:type rdf:resource="http://purl.org/dc/dcmitype/StillImage"/>
    <dc:date>2023-10-05T11:06:48.444149</dc:date>
    <dc:format>image/svg+xml</dc:format>
    <dc:creator>
     <cc:Agent>
      <dc:title>Matplotlib v3.5.0, https://matplotlib.org/</dc:title>
     </cc:Agent>
    </dc:creator>
   </cc:Work>
  </rdf:RDF>
 </metadata>
 <defs>
  <style type="text/css">*{stroke-linejoin: round; stroke-linecap: butt}</style>
 </defs>
 <g id="figure_1">
  <g id="patch_1">
   <path d="M 0 216 
L 720 216 
L 720 0 
L 0 0 
z
" style="fill: #ffffff"/>
  </g>
  <g id="axes_1">
   <g id="patch_2">
    <path d="M 90 192.24 
L 648 192.24 
L 648 25.92 
L 90 25.92 
z
" style="fill: #ffffff"/>
   </g>
   <g id="patch_3">
    <path d="M 115.363636 192.24 
L 131.727273 192.24 
L 131.727273 40.83613 
L 115.363636 40.83613 
z
" clip-path="url(#p5d0a107a02)" style="fill: #1f77b4"/>
   </g>
   <g id="patch_4">
    <path d="M 135.818182 192.24 
L 152.181818 192.24 
L 152.181818 45.470987 
L 135.818182 45.470987 
z
" clip-path="url(#p5d0a107a02)" style="fill: #1f77b4"/>
   </g>
   <g id="patch_5">
    <path d="M 156.272727 192.24 
L 172.636364 192.24 
L 172.636364 45.186306 
L 156.272727 45.186306 
z
" clip-path="url(#p5d0a107a02)" style="fill: #1f77b4"/>
   </g>
   <g id="patch_6">
    <path d="M 176.727273 192.24 
L 193.090909 192.24 
L 193.090909 57.870438 
L 176.727273 57.870438 
z
" clip-path="url(#p5d0a107a02)" style="fill: #1f77b4"/>
   </g>
   <g id="patch_7">
    <path d="M 197.181818 192.24 
L 213.545455 192.24 
L 213.545455 37.373387 
L 197.181818 37.373387 
z
" clip-path="url(#p5d0a107a02)" style="fill: #1f77b4"/>
   </g>
   <g id="patch_8">
    <path d="M 217.636364 192.24 
L 234 192.24 
L 234 49.772838 
L 217.636364 49.772838 
z
" clip-path="url(#p5d0a107a02)" style="fill: #1f77b4"/>
   </g>
   <g id="patch_9">
    <path d="M 238.090909 192.24 
L 254.454545 192.24 
L 254.454545 79.799683 
L 238.090909 79.799683 
z
" clip-path="url(#p5d0a107a02)" style="fill: #1f77b4"/>
   </g>
   <g id="patch_10">
    <path d="M 258.545455 192.24 
L 274.909091 192.24 
L 274.909091 49.804469 
L 258.545455 49.804469 
z
" clip-path="url(#p5d0a107a02)" style="fill: #1f77b4"/>
   </g>
   <g id="patch_11">
    <path d="M 279 192.24 
L 295.363636 192.24 
L 295.363636 46.857491 
L 279 46.857491 
z
" clip-path="url(#p5d0a107a02)" style="fill: #1f77b4"/>
   </g>
   <g id="patch_12">
    <path d="M 299.454545 192.24 
L 315.818182 192.24 
L 315.818182 55.118519 
L 299.454545 55.118519 
z
" clip-path="url(#p5d0a107a02)" style="fill: #1f77b4"/>
   </g>
   <g id="patch_13">
    <path d="M 319.909091 192.24 
L 336.272727 192.24 
L 336.272727 72.231027 
L 319.909091 72.231027 
z
" clip-path="url(#p5d0a107a02)" style="fill: #1f77b4"/>
   </g>
   <g id="patch_14">
    <path d="M 340.363636 192.24 
L 356.727273 192.24 
L 356.727273 43.794531 
L 340.363636 43.794531 
z
" clip-path="url(#p5d0a107a02)" style="fill: #1f77b4"/>
   </g>
   <g id="patch_15">
    <path d="M 360.818182 192.24 
L 377.181818 192.24 
L 377.181818 53.853269 
L 360.818182 53.853269 
z
" clip-path="url(#p5d0a107a02)" style="fill: #1f77b4"/>
   </g>
   <g id="patch_16">
    <path d="M 381.272727 192.24 
L 397.636364 192.24 
L 397.636364 36.930549 
L 381.272727 36.930549 
z
" clip-path="url(#p5d0a107a02)" style="fill: #1f77b4"/>
   </g>
   <g id="patch_17">
    <path d="M 401.727273 192.24 
L 418.090909 192.24 
L 418.090909 65.272152 
L 401.727273 65.272152 
z
" clip-path="url(#p5d0a107a02)" style="fill: #1f77b4"/>
   </g>
   <g id="patch_18">
    <path d="M 422.181818 192.24 
L 438.545455 192.24 
L 438.545455 76.910695 
L 422.181818 76.910695 
z
" clip-path="url(#p5d0a107a02)" style="fill: #1f77b4"/>
   </g>
   <g id="patch_19">
    <path d="M 442.636364 192.24 
L 459 192.24 
L 459 44.996519 
L 442.636364 44.996519 
z
" clip-path="url(#p5d0a107a02)" style="fill: #1f77b4"/>
   </g>
   <g id="patch_20">
    <path d="M 463.090909 192.24 
L 479.454545 192.24 
L 479.454545 41.390556 
L 463.090909 41.390556 
z
" clip-path="url(#p5d0a107a02)" style="fill: #1f77b4"/>
   </g>
   <g id="patch_21">
    <path d="M 483.545455 192.24 
L 499.909091 192.24 
L 499.909091 57.269445 
L 483.545455 57.269445 
z
" clip-path="url(#p5d0a107a02)" style="fill: #1f77b4"/>
   </g>
   <g id="patch_22">
    <path d="M 504 192.24 
L 520.363636 192.24 
L 520.363636 44.300631 
L 504 44.300631 
z
" clip-path="url(#p5d0a107a02)" style="fill: #1f77b4"/>
   </g>
   <g id="patch_23">
    <path d="M 524.454545 192.24 
L 540.818182 192.24 
L 540.818182 93.897306 
L 524.454545 93.897306 
z
" clip-path="url(#p5d0a107a02)" style="fill: #1f77b4"/>
   </g>
   <g id="patch_24">
    <path d="M 544.909091 192.24 
L 561.272727 192.24 
L 561.272727 66.916977 
L 544.909091 66.916977 
z
" clip-path="url(#p5d0a107a02)" style="fill: #1f77b4"/>
   </g>
   <g id="patch_25">
    <path d="M 565.363636 192.24 
L 581.727273 192.24 
L 581.727273 65.651727 
L 565.363636 65.651727 
z
" clip-path="url(#p5d0a107a02)" style="fill: #1f77b4"/>
   </g>
   <g id="patch_26">
    <path d="M 585.818182 192.24 
L 602.181818 192.24 
L 602.181818 47.603336 
L 585.818182 47.603336 
z
" clip-path="url(#p5d0a107a02)" style="fill: #1f77b4"/>
   </g>
   <g id="patch_27">
    <path d="M 606.272727 192.24 
L 622.636364 192.24 
L 622.636364 67.423077 
L 606.272727 67.423077 
z
" clip-path="url(#p5d0a107a02)" style="fill: #1f77b4"/>
   </g>
   <g id="PathCollection_1">
    <defs>
     <path id="me4318d3083" d="M -3 -4.5 
L 0 0 
L 3 -4.5 
" style="stroke: #ff7f0e; stroke-width: 1.5"/>
    </defs>
    <g clip-path="url(#p5d0a107a02)">
     <use xlink:href="#me4318d3083" x="123.545455" y="42.782331" style="fill: #ff7f0e; stroke: #ff7f0e; stroke-width: 1.5"/>
     <use xlink:href="#me4318d3083" x="144" y="52.11355" style="fill: #ff7f0e; stroke: #ff7f0e; stroke-width: 1.5"/>
     <use xlink:href="#me4318d3083" x="164.454545" y="51.006457" style="fill: #ff7f0e; stroke: #ff7f0e; stroke-width: 1.5"/>
     <use xlink:href="#me4318d3083" x="184.909091" y="66.50577" style="fill: #ff7f0e; stroke: #ff7f0e; stroke-width: 1.5"/>
     <use xlink:href="#me4318d3083" x="205.363636" y="42.782331" style="fill: #ff7f0e; stroke: #ff7f0e; stroke-width: 1.5"/>
     <use xlink:href="#me4318d3083" x="225.818182" y="54.960363" style="fill: #ff7f0e; stroke: #ff7f0e; stroke-width: 1.5"/>
     <use xlink:href="#me4318d3083" x="246.272727" y="96.792695" style="fill: #ff7f0e; stroke: #ff7f0e; stroke-width: 1.5"/>
     <use xlink:href="#me4318d3083" x="266.727273" y="60.812145" style="fill: #ff7f0e; stroke: #ff7f0e; stroke-width: 1.5"/>
     <use xlink:href="#me4318d3083" x="287.181818" y="55.09216" style="fill: #ff7f0e; stroke: #ff7f0e; stroke-width: 1.5"/>
     <use xlink:href="#me4318d3083" x="307.636364" y="58.91427" style="fill: #ff7f0e; stroke: #ff7f0e; stroke-width: 1.5"/>
     <use xlink:href="#me4318d3083" x="328.090909" y="107.15193" style="fill: #ff7f0e; stroke: #ff7f0e; stroke-width: 1.5"/>
     <use xlink:href="#me4318d3083" x="348.545455" y="48.634113" style="fill: #ff7f0e; stroke: #ff7f0e; stroke-width: 1.5"/>
     <use xlink:href="#me4318d3083" x="369" y="67.771021" style="fill: #ff7f0e; stroke: #ff7f0e; stroke-width: 1.5"/>
     <use xlink:href="#me4318d3083" x="389.454545" y="43.098643" style="fill: #ff7f0e; stroke: #ff7f0e; stroke-width: 1.5"/>
     <use xlink:href="#me4318d3083" x="409.909091" y="82.637709" style="fill: #ff7f0e; stroke: #ff7f0e; stroke-width: 1.5"/>
     <use xlink:href="#me4318d3083" x="430.363636" y="107.626399" style="fill: #ff7f0e; stroke: #ff7f0e; stroke-width: 1.5"/>
     <use xlink:href="#me4318d3083" x="450.818182" y="48.634113" style="fill: #ff7f0e; stroke: #ff7f0e; stroke-width: 1.5"/>
     <use xlink:href="#me4318d3083" x="471.272727" y="43.573112" style="fill: #ff7f0e; stroke: #ff7f0e; stroke-width: 1.5"/>
     <use xlink:href="#me4318d3083" x="491.727273" y="69.985208" style="fill: #ff7f0e; stroke: #ff7f0e; stroke-width: 1.5"/>
     <use xlink:href="#me4318d3083" x="512.181818" y="49.58305" style="fill: #ff7f0e; stroke: #ff7f0e; stroke-width: 1.5"/>
     <use xlink:href="#me4318d3083" x="532.636364" y="117.814298" style="fill: #ff7f0e; stroke: #ff7f0e; stroke-width: 1.5"/>
     <use xlink:href="#me4318d3083" x="553.090909" y="79.316428" style="fill: #ff7f0e; stroke: #ff7f0e; stroke-width: 1.5"/>
     <use xlink:href="#me4318d3083" x="573.545455" y="83.586647" style="fill: #ff7f0e; stroke: #ff7f0e; stroke-width: 1.5"/>
     <use xlink:href="#me4318d3083" x="594" y="56.700082" style="fill: #ff7f0e; stroke: #ff7f0e; stroke-width: 1.5"/>
     <use xlink:href="#me4318d3083" x="614.454545" y="86.749772" style="fill: #ff7f0e; stroke: #ff7f0e; stroke-width: 1.5"/>
    </g>
   </g>
   <g id="PathCollection_2">
    <defs>
     <path id="mc611d223dd" d="M 3 4.5 
L 0 0 
L -3 4.5 
" style="stroke: #2ca02c; stroke-width: 1.5"/>
    </defs>
    <g clip-path="url(#p5d0a107a02)">
     <use xlink:href="#mc611d223dd" x="123.545455" y="39.619206" style="fill: #2ca02c; stroke: #2ca02c; stroke-width: 1.5"/>
     <use xlink:href="#mc611d223dd" x="144" y="40.251831" style="fill: #2ca02c; stroke: #2ca02c; stroke-width: 1.5"/>
     <use xlink:href="#mc611d223dd" x="164.454545" y="40.409987" style="fill: #2ca02c; stroke: #2ca02c; stroke-width: 1.5"/>
     <use xlink:href="#mc611d223dd" x="184.909091" y="48.159644" style="fill: #2ca02c; stroke: #2ca02c; stroke-width: 1.5"/>
     <use xlink:href="#mc611d223dd" x="205.363636" y="35.032674" style="fill: #2ca02c; stroke: #2ca02c; stroke-width: 1.5"/>
     <use xlink:href="#mc611d223dd" x="225.818182" y="42.149706" style="fill: #2ca02c; stroke: #2ca02c; stroke-width: 1.5"/>
     <use xlink:href="#mc611d223dd" x="246.272727" y="67.454708" style="fill: #2ca02c; stroke: #2ca02c; stroke-width: 1.5"/>
     <use xlink:href="#mc611d223dd" x="266.727273" y="40.884456" style="fill: #2ca02c; stroke: #2ca02c; stroke-width: 1.5"/>
     <use xlink:href="#mc611d223dd" x="287.181818" y="39.461049" style="fill: #2ca02c; stroke: #2ca02c; stroke-width: 1.5"/>
     <use xlink:href="#mc611d223dd" x="307.636364" y="49.266738" style="fill: #2ca02c; stroke: #2ca02c; stroke-width: 1.5"/>
     <use xlink:href="#mc611d223dd" x="328.090909" y="49.266738" style="fill: #2ca02c; stroke: #2ca02c; stroke-width: 1.5"/>
     <use xlink:href="#mc611d223dd" x="348.545455" y="37.721331" style="fill: #2ca02c; stroke: #2ca02c; stroke-width: 1.5"/>
     <use xlink:href="#mc611d223dd" x="369" y="43.2568" style="fill: #2ca02c; stroke: #2ca02c; stroke-width: 1.5"/>
     <use xlink:href="#mc611d223dd" x="389.454545" y="34.241893" style="fill: #2ca02c; stroke: #2ca02c; stroke-width: 1.5"/>
     <use xlink:href="#mc611d223dd" x="409.909091" y="44.363894" style="fill: #2ca02c; stroke: #2ca02c; stroke-width: 1.5"/>
     <use xlink:href="#mc611d223dd" x="430.363636" y="58.756114" style="fill: #2ca02c; stroke: #2ca02c; stroke-width: 1.5"/>
     <use xlink:href="#mc611d223dd" x="450.818182" y="40.409987" style="fill: #2ca02c; stroke: #2ca02c; stroke-width: 1.5"/>
     <use xlink:href="#mc611d223dd" x="471.272727" y="39.144737" style="fill: #2ca02c; stroke: #2ca02c; stroke-width: 1.5"/>
     <use xlink:href="#mc611d223dd" x="491.727273" y="47.368863" style="fill: #2ca02c; stroke: #2ca02c; stroke-width: 1.5"/>
     <use xlink:href="#mc611d223dd" x="512.181818" y="39.461049" style="fill: #2ca02c; stroke: #2ca02c; stroke-width: 1.5"/>
     <use xlink:href="#mc611d223dd" x="532.636364" y="69.036271" style="fill: #2ca02c; stroke: #2ca02c; stroke-width: 1.5"/>
     <use xlink:href="#mc611d223dd" x="553.090909" y="51.639082" style="fill: #2ca02c; stroke: #2ca02c; stroke-width: 1.5"/>
     <use xlink:href="#mc611d223dd" x="573.545455" y="55.909301" style="fill: #2ca02c; stroke: #2ca02c; stroke-width: 1.5"/>
     <use xlink:href="#mc611d223dd" x="594" y="40.409987" style="fill: #2ca02c; stroke: #2ca02c; stroke-width: 1.5"/>
     <use xlink:href="#mc611d223dd" x="614.454545" y="53.220644" style="fill: #2ca02c; stroke: #2ca02c; stroke-width: 1.5"/>
    </g>
   </g>
   <g id="matplotlib.axis_1">
    <g id="xtick_1">
     <g id="line2d_1">
      <defs>
       <path id="m50e52b9681" d="M 0 0 
L 0 3.5 
" style="stroke: #000000; stroke-width: 0.8"/>
      </defs>
      <g>
       <use xlink:href="#m50e52b9681" x="123.545455" y="192.24" style="stroke: #000000; stroke-width: 0.8"/>
      </g>
     </g>
     <g id="text_1">
      <!-- $t1$ -->
      <g transform="translate(127.02889 211.000175)rotate(-90)scale(0.14 -0.14)">
       <defs>
        <path id="CMMI12-74" d="M 1286 2566 
L 1875 2566 
C 1997 2566 2061 2566 2061 2681 
C 2061 2752 2022 2752 1894 2752 
L 1331 2752 
L 1568 3692 
C 1594 3781 1594 3794 1594 3840 
C 1594 3943 1510 4000 1427 4000 
C 1376 4000 1229 3981 1178 3775 
L 928 2752 
L 326 2752 
C 198 2752 141 2752 141 2630 
C 141 2566 186 2566 307 2566 
L 877 2566 
L 454 881 
C 403 658 384 594 384 511 
C 384 211 595 -64 954 -64 
C 1600 -64 1946 868 1946 912 
C 1946 951 1920 970 1882 970 
C 1869 970 1843 970 1830 944 
C 1824 938 1818 931 1773 829 
C 1638 511 1344 64 973 64 
C 781 64 768 224 768 364 
C 768 370 768 492 787 568 
L 1286 2566 
z
" transform="scale(0.015625)"/>
        <path id="CMR17-31" d="M 1702 4058 
C 1702 4192 1696 4192 1606 4192 
C 1357 3916 979 3827 621 3827 
C 602 3827 570 3827 563 3808 
C 557 3795 557 3782 557 3648 
C 755 3648 1088 3686 1344 3839 
L 1344 461 
C 1344 236 1331 160 781 160 
L 589 160 
L 589 0 
C 896 0 1216 0 1523 0 
C 1830 0 2150 0 2458 0 
L 2458 160 
L 2266 160 
C 1715 160 1702 230 1702 458 
L 1702 4058 
z
" transform="scale(0.015625)"/>
       </defs>
       <use xlink:href="#CMMI12-74" transform="scale(0.996264)"/>
       <use xlink:href="#CMR17-31" transform="translate(35.22633 0)scale(0.996264)"/>
      </g>
     </g>
    </g>
    <g id="xtick_2">
     <g id="line2d_2">
      <g>
       <use xlink:href="#m50e52b9681" x="144" y="192.24" style="stroke: #000000; stroke-width: 0.8"/>
      </g>
     </g>
     <g id="text_2">
      <!-- $t2$ -->
      <g transform="translate(147.483435 211.000175)rotate(-90)scale(0.14 -0.14)">
       <defs>
        <path id="CMR17-32" d="M 2669 989 
L 2554 989 
C 2490 536 2438 459 2413 420 
C 2381 369 1920 369 1830 369 
L 602 369 
C 832 619 1280 1072 1824 1597 
C 2214 1967 2669 2402 2669 3035 
C 2669 3790 2067 4224 1395 4224 
C 691 4224 262 3604 262 3030 
C 262 2780 448 2748 525 2748 
C 589 2748 781 2787 781 3010 
C 781 3207 614 3264 525 3264 
C 486 3264 448 3258 422 3245 
C 544 3790 915 4058 1306 4058 
C 1862 4058 2227 3617 2227 3035 
C 2227 2479 1901 2000 1536 1584 
L 262 146 
L 262 0 
L 2515 0 
L 2669 989 
z
" transform="scale(0.015625)"/>
       </defs>
       <use xlink:href="#CMMI12-74" transform="scale(0.996264)"/>
       <use xlink:href="#CMR17-32" transform="translate(35.22633 0)scale(0.996264)"/>
      </g>
     </g>
    </g>
    <g id="xtick_3">
     <g id="line2d_3">
      <g>
       <use xlink:href="#m50e52b9681" x="164.454545" y="192.24" style="stroke: #000000; stroke-width: 0.8"/>
      </g>
     </g>
     <g id="text_3">
      <!-- $t3$ -->
      <g transform="translate(167.937981 211.000175)rotate(-90)scale(0.14 -0.14)">
       <defs>
        <path id="CMR17-33" d="M 1414 2157 
C 1984 2157 2234 1662 2234 1090 
C 2234 320 1824 25 1453 25 
C 1114 25 563 194 390 693 
C 422 680 454 680 486 680 
C 640 680 755 782 755 948 
C 755 1133 614 1216 486 1216 
C 378 1216 211 1165 211 926 
C 211 335 787 -128 1466 -128 
C 2176 -128 2720 430 2720 1085 
C 2720 1707 2208 2157 1600 2227 
C 2086 2328 2554 2756 2554 3329 
C 2554 3820 2048 4179 1472 4179 
C 890 4179 378 3829 378 3329 
C 378 3110 544 3072 627 3072 
C 762 3072 877 3155 877 3321 
C 877 3486 762 3569 627 3569 
C 602 3569 570 3569 544 3557 
C 730 3959 1235 4032 1459 4032 
C 1683 4032 2106 3925 2106 3320 
C 2106 3143 2080 2828 1862 2550 
C 1670 2304 1453 2304 1242 2284 
C 1210 2284 1062 2269 1037 2269 
C 992 2263 966 2257 966 2208 
C 966 2163 973 2157 1101 2157 
L 1414 2157 
z
" transform="scale(0.015625)"/>
       </defs>
       <use xlink:href="#CMMI12-74" transform="scale(0.996264)"/>
       <use xlink:href="#CMR17-33" transform="translate(35.22633 0)scale(0.996264)"/>
      </g>
     </g>
    </g>
    <g id="xtick_4">
     <g id="line2d_4">
      <g>
       <use xlink:href="#m50e52b9681" x="184.909091" y="192.24" style="stroke: #000000; stroke-width: 0.8"/>
      </g>
     </g>
     <g id="text_4">
      <!-- $t4$ -->
      <g transform="translate(188.392526 211.000175)rotate(-90)scale(0.14 -0.14)">
       <defs>
        <path id="CMR17-34" d="M 2150 4122 
C 2150 4256 2144 4256 2029 4256 
L 128 1254 
L 128 1088 
L 1779 1088 
L 1779 457 
C 1779 224 1766 160 1318 160 
L 1197 160 
L 1197 0 
C 1402 0 1747 0 1965 0 
C 2182 0 2528 0 2733 0 
L 2733 160 
L 2611 160 
C 2163 160 2150 224 2150 457 
L 2150 1088 
L 2803 1088 
L 2803 1254 
L 2150 1254 
L 2150 4122 
z
M 1798 3703 
L 1798 1254 
L 256 1254 
L 1798 3703 
z
" transform="scale(0.015625)"/>
       </defs>
       <use xlink:href="#CMMI12-74" transform="scale(0.996264)"/>
       <use xlink:href="#CMR17-34" transform="translate(35.22633 0)scale(0.996264)"/>
      </g>
     </g>
    </g>
    <g id="xtick_5">
     <g id="line2d_5">
      <g>
       <use xlink:href="#m50e52b9681" x="205.363636" y="192.24" style="stroke: #000000; stroke-width: 0.8"/>
      </g>
     </g>
     <g id="text_5">
      <!-- $t5$ -->
      <g transform="translate(208.847072 211.000175)rotate(-90)scale(0.14 -0.14)">
       <defs>
        <path id="CMR17-35" d="M 730 3692 
C 794 3666 1056 3584 1325 3584 
C 1920 3584 2246 3911 2432 4100 
C 2432 4157 2432 4192 2394 4192 
C 2387 4192 2374 4192 2323 4163 
C 2099 4058 1837 3973 1517 3973 
C 1325 3973 1037 3999 723 4139 
C 653 4171 640 4171 634 4171 
C 602 4171 595 4164 595 4037 
L 595 2203 
C 595 2089 595 2057 659 2057 
C 691 2057 704 2070 736 2114 
C 941 2401 1222 2522 1542 2522 
C 1766 2522 2246 2382 2246 1289 
C 2246 1085 2246 715 2054 421 
C 1894 159 1645 25 1370 25 
C 947 25 518 320 403 814 
C 429 807 480 795 506 795 
C 589 795 749 840 749 1038 
C 749 1210 627 1280 506 1280 
C 358 1280 262 1190 262 1011 
C 262 454 704 -128 1382 -128 
C 2042 -128 2669 440 2669 1264 
C 2669 2030 2170 2624 1549 2624 
C 1222 2624 947 2503 730 2274 
L 730 3692 
z
" transform="scale(0.015625)"/>
       </defs>
       <use xlink:href="#CMMI12-74" transform="scale(0.996264)"/>
       <use xlink:href="#CMR17-35" transform="translate(35.22633 0)scale(0.996264)"/>
      </g>
     </g>
    </g>
    <g id="xtick_6">
     <g id="line2d_6">
      <g>
       <use xlink:href="#m50e52b9681" x="225.818182" y="192.24" style="stroke: #000000; stroke-width: 0.8"/>
      </g>
     </g>
     <g id="text_6">
      <!-- $t6$ -->
      <g transform="translate(229.301617 211.000175)rotate(-90)scale(0.14 -0.14)">
       <defs>
        <path id="CMR17-36" d="M 678 2176 
C 678 3690 1395 4032 1811 4032 
C 1946 4032 2272 4009 2400 3776 
C 2298 3776 2106 3776 2106 3553 
C 2106 3381 2246 3323 2336 3323 
C 2394 3323 2566 3348 2566 3560 
C 2566 3954 2246 4179 1805 4179 
C 1043 4179 243 3390 243 1984 
C 243 253 966 -128 1478 -128 
C 2099 -128 2688 427 2688 1283 
C 2688 2081 2170 2662 1517 2662 
C 1126 2662 838 2407 678 1960 
L 678 2176 
z
M 1478 25 
C 691 25 691 1200 691 1436 
C 691 1896 909 2560 1504 2560 
C 1613 2560 1926 2560 2138 2120 
C 2253 1870 2253 1609 2253 1289 
C 2253 944 2253 690 2118 434 
C 1978 171 1773 25 1478 25 
z
" transform="scale(0.015625)"/>
       </defs>
       <use xlink:href="#CMMI12-74" transform="scale(0.996264)"/>
       <use xlink:href="#CMR17-36" transform="translate(35.22633 0)scale(0.996264)"/>
      </g>
     </g>
    </g>
    <g id="xtick_7">
     <g id="line2d_7">
      <g>
       <use xlink:href="#m50e52b9681" x="246.272727" y="192.24" style="stroke: #000000; stroke-width: 0.8"/>
      </g>
     </g>
     <g id="text_7">
      <!-- $t7$ -->
      <g transform="translate(249.756162 211.000175)rotate(-90)scale(0.14 -0.14)">
       <defs>
        <path id="CMR17-37" d="M 2886 3941 
L 2886 4081 
L 1382 4081 
C 634 4081 621 4165 595 4288 
L 480 4288 
L 294 3094 
L 410 3094 
C 429 3215 474 3540 550 3661 
C 589 3712 1062 3712 1171 3712 
L 2579 3712 
L 1869 2661 
C 1395 1954 1069 999 1069 165 
C 1069 89 1069 -128 1299 -128 
C 1530 -128 1530 89 1530 171 
L 1530 465 
C 1530 1508 1709 2196 2003 2636 
L 2886 3941 
z
" transform="scale(0.015625)"/>
       </defs>
       <use xlink:href="#CMMI12-74" transform="scale(0.996264)"/>
       <use xlink:href="#CMR17-37" transform="translate(35.22633 0)scale(0.996264)"/>
      </g>
     </g>
    </g>
    <g id="xtick_8">
     <g id="line2d_8">
      <g>
       <use xlink:href="#m50e52b9681" x="266.727273" y="192.24" style="stroke: #000000; stroke-width: 0.8"/>
      </g>
     </g>
     <g id="text_8">
      <!-- $t8$ -->
      <g transform="translate(270.210708 211.000175)rotate(-90)scale(0.14 -0.14)">
       <defs>
        <path id="CMR17-38" d="M 1741 2264 
C 2144 2467 2554 2773 2554 3263 
C 2554 3841 1990 4179 1472 4179 
C 890 4179 378 3759 378 3180 
C 378 3021 416 2747 666 2505 
C 730 2442 998 2251 1171 2130 
C 883 1983 211 1634 211 934 
C 211 279 838 -128 1459 -128 
C 2144 -128 2720 362 2720 1010 
C 2720 1590 2330 1857 2074 2029 
L 1741 2264 
z
M 902 2822 
C 851 2854 595 3051 595 3351 
C 595 3739 998 4032 1459 4032 
C 1965 4032 2336 3676 2336 3262 
C 2336 2669 1670 2331 1638 2331 
C 1632 2331 1626 2331 1574 2370 
L 902 2822 
z
M 2080 1519 
C 2176 1449 2483 1240 2483 851 
C 2483 381 2010 25 1472 25 
C 890 25 448 438 448 940 
C 448 1443 838 1862 1280 2060 
L 2080 1519 
z
" transform="scale(0.015625)"/>
       </defs>
       <use xlink:href="#CMMI12-74" transform="scale(0.996264)"/>
       <use xlink:href="#CMR17-38" transform="translate(35.22633 0)scale(0.996264)"/>
      </g>
     </g>
    </g>
    <g id="xtick_9">
     <g id="line2d_9">
      <g>
       <use xlink:href="#m50e52b9681" x="287.181818" y="192.24" style="stroke: #000000; stroke-width: 0.8"/>
      </g>
     </g>
     <g id="text_9">
      <!-- $t9$ -->
      <g transform="translate(290.665253 211.000175)rotate(-90)scale(0.14 -0.14)">
       <defs>
        <path id="CMR17-39" d="M 2253 1864 
C 2253 464 1670 31 1190 31 
C 1043 31 685 31 538 294 
C 704 268 826 357 826 518 
C 826 692 685 749 595 749 
C 538 749 365 723 365 506 
C 365 71 742 -128 1203 -128 
C 1939 -128 2688 674 2688 2073 
C 2688 3817 1971 4179 1485 4179 
C 851 4179 243 3628 243 2778 
C 243 1991 762 1408 1414 1408 
C 1952 1408 2189 1903 2253 2112 
L 2253 1864 
z
M 1427 1510 
C 1254 1510 1011 1542 813 1922 
C 678 2169 678 2461 678 2771 
C 678 3146 678 3405 858 3684 
C 947 3817 1114 4032 1485 4032 
C 2240 4032 2240 2885 2240 2632 
C 2240 2182 2035 1510 1427 1510 
z
" transform="scale(0.015625)"/>
       </defs>
       <use xlink:href="#CMMI12-74" transform="scale(0.996264)"/>
       <use xlink:href="#CMR17-39" transform="translate(35.22633 0)scale(0.996264)"/>
      </g>
     </g>
    </g>
    <g id="xtick_10">
     <g id="line2d_10">
      <g>
       <use xlink:href="#m50e52b9681" x="307.636364" y="192.24" style="stroke: #000000; stroke-width: 0.8"/>
      </g>
     </g>
     <g id="text_10">
      <!-- $t10$ -->
      <g transform="translate(311.119799 217.828663)rotate(-90)scale(0.14 -0.14)">
       <defs>
        <path id="CMR17-30" d="M 2688 2025 
C 2688 2416 2682 3080 2413 3591 
C 2176 4039 1798 4198 1466 4198 
C 1158 4198 768 4058 525 3597 
C 269 3118 243 2524 243 2025 
C 243 1661 250 1106 448 619 
C 723 -39 1216 -128 1466 -128 
C 1760 -128 2208 -7 2470 600 
C 2662 1042 2688 1559 2688 2025 
z
M 1466 -26 
C 1056 -26 813 325 723 812 
C 653 1188 653 1738 653 2096 
C 653 2588 653 2997 736 3387 
C 858 3929 1216 4096 1466 4096 
C 1728 4096 2067 3923 2189 3400 
C 2272 3036 2278 2607 2278 2096 
C 2278 1680 2278 1169 2202 792 
C 2067 95 1690 -26 1466 -26 
z
" transform="scale(0.015625)"/>
       </defs>
       <use xlink:href="#CMMI12-74" transform="scale(0.996264)"/>
       <use xlink:href="#CMR17-31" transform="translate(35.22633 0)scale(0.996264)"/>
       <use xlink:href="#CMR17-30" transform="translate(80.916807 0)scale(0.996264)"/>
      </g>
     </g>
    </g>
    <g id="xtick_11">
     <g id="line2d_11">
      <g>
       <use xlink:href="#m50e52b9681" x="328.090909" y="192.24" style="stroke: #000000; stroke-width: 0.8"/>
      </g>
     </g>
     <g id="text_11">
      <!-- $t11$ -->
      <g transform="translate(331.574344 217.828663)rotate(-90)scale(0.14 -0.14)">
       <use xlink:href="#CMMI12-74" transform="scale(0.996264)"/>
       <use xlink:href="#CMR17-31" transform="translate(35.22633 0)scale(0.996264)"/>
       <use xlink:href="#CMR17-31" transform="translate(80.916807 0)scale(0.996264)"/>
      </g>
     </g>
    </g>
    <g id="xtick_12">
     <g id="line2d_12">
      <g>
       <use xlink:href="#m50e52b9681" x="348.545455" y="192.24" style="stroke: #000000; stroke-width: 0.8"/>
      </g>
     </g>
     <g id="text_12">
      <!-- $t12$ -->
      <g transform="translate(352.02889 217.828663)rotate(-90)scale(0.14 -0.14)">
       <use xlink:href="#CMMI12-74" transform="scale(0.996264)"/>
       <use xlink:href="#CMR17-31" transform="translate(35.22633 0)scale(0.996264)"/>
       <use xlink:href="#CMR17-32" transform="translate(80.916807 0)scale(0.996264)"/>
      </g>
     </g>
    </g>
    <g id="xtick_13">
     <g id="line2d_13">
      <g>
       <use xlink:href="#m50e52b9681" x="369" y="192.24" style="stroke: #000000; stroke-width: 0.8"/>
      </g>
     </g>
     <g id="text_13">
      <!-- $t13$ -->
      <g transform="translate(372.483435 217.828663)rotate(-90)scale(0.14 -0.14)">
       <use xlink:href="#CMMI12-74" transform="scale(0.996264)"/>
       <use xlink:href="#CMR17-31" transform="translate(35.22633 0)scale(0.996264)"/>
       <use xlink:href="#CMR17-33" transform="translate(80.916807 0)scale(0.996264)"/>
      </g>
     </g>
    </g>
    <g id="xtick_14">
     <g id="line2d_14">
      <g>
       <use xlink:href="#m50e52b9681" x="389.454545" y="192.24" style="stroke: #000000; stroke-width: 0.8"/>
      </g>
     </g>
     <g id="text_14">
      <!-- $t14$ -->
      <g transform="translate(392.937981 217.828663)rotate(-90)scale(0.14 -0.14)">
       <use xlink:href="#CMMI12-74" transform="scale(0.996264)"/>
       <use xlink:href="#CMR17-31" transform="translate(35.22633 0)scale(0.996264)"/>
       <use xlink:href="#CMR17-34" transform="translate(80.916807 0)scale(0.996264)"/>
      </g>
     </g>
    </g>
    <g id="xtick_15">
     <g id="line2d_15">
      <g>
       <use xlink:href="#m50e52b9681" x="409.909091" y="192.24" style="stroke: #000000; stroke-width: 0.8"/>
      </g>
     </g>
     <g id="text_15">
      <!-- $t15$ -->
      <g transform="translate(413.392526 217.828663)rotate(-90)scale(0.14 -0.14)">
       <use xlink:href="#CMMI12-74" transform="scale(0.996264)"/>
       <use xlink:href="#CMR17-31" transform="translate(35.22633 0)scale(0.996264)"/>
       <use xlink:href="#CMR17-35" transform="translate(80.916807 0)scale(0.996264)"/>
      </g>
     </g>
    </g>
    <g id="xtick_16">
     <g id="line2d_16">
      <g>
       <use xlink:href="#m50e52b9681" x="430.363636" y="192.24" style="stroke: #000000; stroke-width: 0.8"/>
      </g>
     </g>
     <g id="text_16">
      <!-- $t16$ -->
      <g transform="translate(433.847072 217.828663)rotate(-90)scale(0.14 -0.14)">
       <use xlink:href="#CMMI12-74" transform="scale(0.996264)"/>
       <use xlink:href="#CMR17-31" transform="translate(35.22633 0)scale(0.996264)"/>
       <use xlink:href="#CMR17-36" transform="translate(80.916807 0)scale(0.996264)"/>
      </g>
     </g>
    </g>
    <g id="xtick_17">
     <g id="line2d_17">
      <g>
       <use xlink:href="#m50e52b9681" x="450.818182" y="192.24" style="stroke: #000000; stroke-width: 0.8"/>
      </g>
     </g>
     <g id="text_17">
      <!-- $t17$ -->
      <g transform="translate(454.301617 217.828663)rotate(-90)scale(0.14 -0.14)">
       <use xlink:href="#CMMI12-74" transform="scale(0.996264)"/>
       <use xlink:href="#CMR17-31" transform="translate(35.22633 0)scale(0.996264)"/>
       <use xlink:href="#CMR17-37" transform="translate(80.916807 0)scale(0.996264)"/>
      </g>
     </g>
    </g>
    <g id="xtick_18">
     <g id="line2d_18">
      <g>
       <use xlink:href="#m50e52b9681" x="471.272727" y="192.24" style="stroke: #000000; stroke-width: 0.8"/>
      </g>
     </g>
     <g id="text_18">
      <!-- $t18$ -->
      <g transform="translate(474.756162 217.828663)rotate(-90)scale(0.14 -0.14)">
       <use xlink:href="#CMMI12-74" transform="scale(0.996264)"/>
       <use xlink:href="#CMR17-31" transform="translate(35.22633 0)scale(0.996264)"/>
       <use xlink:href="#CMR17-38" transform="translate(80.916807 0)scale(0.996264)"/>
      </g>
     </g>
    </g>
    <g id="xtick_19">
     <g id="line2d_19">
      <g>
       <use xlink:href="#m50e52b9681" x="491.727273" y="192.24" style="stroke: #000000; stroke-width: 0.8"/>
      </g>
     </g>
     <g id="text_19">
      <!-- $t19$ -->
      <g transform="translate(495.210708 217.828663)rotate(-90)scale(0.14 -0.14)">
       <use xlink:href="#CMMI12-74" transform="scale(0.996264)"/>
       <use xlink:href="#CMR17-31" transform="translate(35.22633 0)scale(0.996264)"/>
       <use xlink:href="#CMR17-39" transform="translate(80.916807 0)scale(0.996264)"/>
      </g>
     </g>
    </g>
    <g id="xtick_20">
     <g id="line2d_20">
      <g>
       <use xlink:href="#m50e52b9681" x="512.181818" y="192.24" style="stroke: #000000; stroke-width: 0.8"/>
      </g>
     </g>
     <g id="text_20">
      <!-- $t20$ -->
      <g transform="translate(515.665253 217.828663)rotate(-90)scale(0.14 -0.14)">
       <use xlink:href="#CMMI12-74" transform="scale(0.996264)"/>
       <use xlink:href="#CMR17-32" transform="translate(35.22633 0)scale(0.996264)"/>
       <use xlink:href="#CMR17-30" transform="translate(80.916807 0)scale(0.996264)"/>
      </g>
     </g>
    </g>
    <g id="xtick_21">
     <g id="line2d_21">
      <g>
       <use xlink:href="#m50e52b9681" x="532.636364" y="192.24" style="stroke: #000000; stroke-width: 0.8"/>
      </g>
     </g>
     <g id="text_21">
      <!-- $t21$ -->
      <g transform="translate(536.119799 217.828663)rotate(-90)scale(0.14 -0.14)">
       <use xlink:href="#CMMI12-74" transform="scale(0.996264)"/>
       <use xlink:href="#CMR17-32" transform="translate(35.22633 0)scale(0.996264)"/>
       <use xlink:href="#CMR17-31" transform="translate(80.916807 0)scale(0.996264)"/>
      </g>
     </g>
    </g>
    <g id="xtick_22">
     <g id="line2d_22">
      <g>
       <use xlink:href="#m50e52b9681" x="553.090909" y="192.24" style="stroke: #000000; stroke-width: 0.8"/>
      </g>
     </g>
     <g id="text_22">
      <!-- $t22$ -->
      <g transform="translate(556.574344 217.828663)rotate(-90)scale(0.14 -0.14)">
       <use xlink:href="#CMMI12-74" transform="scale(0.996264)"/>
       <use xlink:href="#CMR17-32" transform="translate(35.22633 0)scale(0.996264)"/>
       <use xlink:href="#CMR17-32" transform="translate(80.916807 0)scale(0.996264)"/>
      </g>
     </g>
    </g>
    <g id="xtick_23">
     <g id="line2d_23">
      <g>
       <use xlink:href="#m50e52b9681" x="573.545455" y="192.24" style="stroke: #000000; stroke-width: 0.8"/>
      </g>
     </g>
     <g id="text_23">
      <!-- $t23$ -->
      <g transform="translate(577.02889 217.828663)rotate(-90)scale(0.14 -0.14)">
       <use xlink:href="#CMMI12-74" transform="scale(0.996264)"/>
       <use xlink:href="#CMR17-32" transform="translate(35.22633 0)scale(0.996264)"/>
       <use xlink:href="#CMR17-33" transform="translate(80.916807 0)scale(0.996264)"/>
      </g>
     </g>
    </g>
    <g id="xtick_24">
     <g id="line2d_24">
      <g>
       <use xlink:href="#m50e52b9681" x="594" y="192.24" style="stroke: #000000; stroke-width: 0.8"/>
      </g>
     </g>
     <g id="text_24">
      <!-- $t24$ -->
      <g transform="translate(597.483435 217.828663)rotate(-90)scale(0.14 -0.14)">
       <use xlink:href="#CMMI12-74" transform="scale(0.996264)"/>
       <use xlink:href="#CMR17-32" transform="translate(35.22633 0)scale(0.996264)"/>
       <use xlink:href="#CMR17-34" transform="translate(80.916807 0)scale(0.996264)"/>
      </g>
     </g>
    </g>
    <g id="xtick_25">
     <g id="line2d_25">
      <g>
       <use xlink:href="#m50e52b9681" x="614.454545" y="192.24" style="stroke: #000000; stroke-width: 0.8"/>
      </g>
     </g>
     <g id="text_25">
      <!-- $t25$ -->
      <g transform="translate(617.937981 217.828663)rotate(-90)scale(0.14 -0.14)">
       <use xlink:href="#CMMI12-74" transform="scale(0.996264)"/>
       <use xlink:href="#CMR17-32" transform="translate(35.22633 0)scale(0.996264)"/>
       <use xlink:href="#CMR17-35" transform="translate(80.916807 0)scale(0.996264)"/>
      </g>
     </g>
    </g>
   </g>
   <g id="matplotlib.axis_2">
    <g id="ytick_1">
     <g id="line2d_26">
      <defs>
       <path id="m427ebe37b4" d="M 0 0 
L -3.5 0 
" style="stroke: #000000; stroke-width: 0.8"/>
      </defs>
      <g>
       <use xlink:href="#m427ebe37b4" x="90" y="192.24" style="stroke: #000000; stroke-width: 0.8"/>
      </g>
     </g>
     <g id="text_26">
      <!-- $\mathdefault{0.0}$ -->
      <g transform="translate(80.878014 201.420919)rotate(-90)scale(0.1 -0.1)">
       <defs>
        <path id="CMMI12-3a" d="M 1178 307 
C 1178 492 1024 619 870 619 
C 685 619 557 466 557 313 
C 557 128 710 0 864 0 
C 1050 0 1178 153 1178 307 
z
" transform="scale(0.015625)"/>
       </defs>
       <use xlink:href="#CMR17-30" transform="scale(0.996264)"/>
       <use xlink:href="#CMMI12-3a" transform="translate(45.690477 0)scale(0.996264)"/>
       <use xlink:href="#CMR17-30" transform="translate(72.787654 0)scale(0.996264)"/>
      </g>
     </g>
    </g>
    <g id="ytick_2">
     <g id="line2d_27">
      <g>
       <use xlink:href="#m427ebe37b4" x="90" y="160.608747" style="stroke: #000000; stroke-width: 0.8"/>
      </g>
     </g>
     <g id="text_27">
      <!-- $\mathdefault{0.2}$ -->
      <g transform="translate(80.878014 169.789666)rotate(-90)scale(0.1 -0.1)">
       <use xlink:href="#CMR17-30" transform="scale(0.996264)"/>
       <use xlink:href="#CMMI12-3a" transform="translate(45.690477 0)scale(0.996264)"/>
       <use xlink:href="#CMR17-32" transform="translate(72.787654 0)scale(0.996264)"/>
      </g>
     </g>
    </g>
    <g id="ytick_3">
     <g id="line2d_28">
      <g>
       <use xlink:href="#m427ebe37b4" x="90" y="128.977495" style="stroke: #000000; stroke-width: 0.8"/>
      </g>
     </g>
     <g id="text_28">
      <!-- $\mathdefault{0.4}$ -->
      <g transform="translate(80.878014 138.158413)rotate(-90)scale(0.1 -0.1)">
       <use xlink:href="#CMR17-30" transform="scale(0.996264)"/>
       <use xlink:href="#CMMI12-3a" transform="translate(45.690477 0)scale(0.996264)"/>
       <use xlink:href="#CMR17-34" transform="translate(72.787654 0)scale(0.996264)"/>
      </g>
     </g>
    </g>
    <g id="ytick_4">
     <g id="line2d_29">
      <g>
       <use xlink:href="#m427ebe37b4" x="90" y="97.346242" style="stroke: #000000; stroke-width: 0.8"/>
      </g>
     </g>
     <g id="text_29">
      <!-- $\mathdefault{0.6}$ -->
      <g transform="translate(80.878014 106.527161)rotate(-90)scale(0.1 -0.1)">
       <use xlink:href="#CMR17-30" transform="scale(0.996264)"/>
       <use xlink:href="#CMMI12-3a" transform="translate(45.690477 0)scale(0.996264)"/>
       <use xlink:href="#CMR17-36" transform="translate(72.787654 0)scale(0.996264)"/>
      </g>
     </g>
    </g>
    <g id="ytick_5">
     <g id="line2d_30">
      <g>
       <use xlink:href="#m427ebe37b4" x="90" y="65.714989" style="stroke: #000000; stroke-width: 0.8"/>
      </g>
     </g>
     <g id="text_30">
      <!-- $\mathdefault{0.8}$ -->
      <g transform="translate(80.878014 74.895908)rotate(-90)scale(0.1 -0.1)">
       <use xlink:href="#CMR17-30" transform="scale(0.996264)"/>
       <use xlink:href="#CMMI12-3a" transform="translate(45.690477 0)scale(0.996264)"/>
       <use xlink:href="#CMR17-38" transform="translate(72.787654 0)scale(0.996264)"/>
      </g>
     </g>
    </g>
    <g id="ytick_6">
     <g id="line2d_31">
      <g>
       <use xlink:href="#m427ebe37b4" x="90" y="34.083736" style="stroke: #000000; stroke-width: 0.8"/>
      </g>
     </g>
     <g id="text_31">
      <!-- $\mathdefault{1.0}$ -->
      <g transform="translate(80.878014 43.264655)rotate(-90)scale(0.1 -0.1)">
       <use xlink:href="#CMR17-31" transform="scale(0.996264)"/>
       <use xlink:href="#CMMI12-3a" transform="translate(45.690477 0)scale(0.996264)"/>
       <use xlink:href="#CMR17-30" transform="translate(72.787654 0)scale(0.996264)"/>
      </g>
     </g>
    </g>
    <g id="text_32">
     <!-- $$\overline{Precision@10}$$ -->
     <g transform="translate(66.808915 151.174199)rotate(-90)scale(0.14 -0.14)">
      <defs>
       <path id="CMMI12-50" d="M 1894 2023 
L 2970 2023 
C 3853 2023 4736 2673 4736 3401 
C 4736 3898 4314 4352 3507 4352 
L 1530 4352 
C 1408 4352 1350 4352 1350 4231 
C 1350 4167 1408 4167 1504 4167 
C 1894 4167 1894 4116 1894 4046 
C 1894 4034 1894 3995 1869 3899 
L 1005 472 
C 947 249 934 185 486 185 
C 365 185 301 185 301 70 
C 301 0 358 0 397 0 
C 518 0 646 0 768 0 
L 1517 0 
C 1638 0 1773 0 1894 0 
C 1946 0 2016 0 2016 121 
C 2016 185 1958 185 1862 185 
C 1478 185 1472 230 1472 293 
C 1472 325 1478 369 1485 401 
L 1894 2023 
z
M 2355 3930 
C 2413 4167 2438 4167 2688 4167 
L 3322 4167 
C 3802 4167 4198 4013 4198 3535 
C 4198 3369 4115 2827 3821 2534 
C 3712 2419 3405 2176 2822 2176 
L 1920 2176 
L 2355 3930 
z
" transform="scale(0.015625)"/>
       <path id="CMMI12-72" d="M 2490 2612 
C 2291 2574 2189 2433 2189 2293 
C 2189 2139 2310 2088 2400 2088 
C 2579 2088 2726 2242 2726 2433 
C 2726 2638 2528 2816 2208 2816 
C 1952 2816 1658 2701 1389 2312 
C 1344 2650 1088 2816 832 2816 
C 582 2816 454 2625 378 2484 
C 269 2254 173 1871 173 1839 
C 173 1814 198 1782 243 1782 
C 294 1782 301 1788 339 1935 
C 435 2318 557 2689 813 2689 
C 966 2689 1011 2580 1011 2395 
C 1011 2254 947 2005 902 1807 
L 723 1118 
C 698 996 627 709 595 594 
C 550 428 480 128 480 96 
C 480 6 550 -64 646 -64 
C 717 -64 838 -19 877 109 
C 896 160 1133 1124 1171 1271 
C 1203 1411 1242 1546 1274 1686 
C 1299 1775 1325 1878 1344 1961 
C 1363 2018 1536 2331 1696 2472 
C 1773 2542 1939 2689 2202 2689 
C 2304 2689 2406 2670 2490 2612 
z
" transform="scale(0.015625)"/>
       <path id="CMMI12-65" d="M 1146 1479 
C 1318 1479 1754 1479 2061 1595 
C 2547 1783 2592 2158 2592 2274 
C 2592 2558 2349 2816 1926 2816 
C 1254 2816 288 2210 288 1073 
C 288 402 672 -64 1254 -64 
C 2125 -64 2675 609 2675 692 
C 2675 730 2637 762 2611 762 
C 2592 762 2586 756 2528 699 
C 2118 159 1510 64 1267 64 
C 902 64 710 350 710 822 
C 710 911 710 1071 806 1479 
L 1146 1479 
z
M 838 1600 
C 1114 2592 1722 2689 1926 2689 
C 2208 2689 2400 2522 2400 2277 
C 2400 1600 1376 1600 1107 1600 
L 838 1600 
z
" transform="scale(0.015625)"/>
       <path id="CMMI12-63" d="M 2502 2431 
C 2381 2431 2323 2431 2234 2355 
C 2195 2323 2125 2227 2125 2125 
C 2125 1997 2221 1920 2342 1920 
C 2496 1920 2669 2044 2669 2292 
C 2669 2588 2374 2816 1933 2816 
C 1094 2816 256 1903 256 996 
C 256 441 602 -64 1254 -64 
C 2125 -64 2675 622 2675 706 
C 2675 744 2637 776 2611 776 
C 2592 776 2586 770 2528 713 
C 2118 162 1510 64 1267 64 
C 826 64 685 446 685 764 
C 685 988 794 1605 1024 2039 
C 1190 2338 1536 2682 1939 2682 
C 2022 2682 2374 2682 2502 2431 
z
" transform="scale(0.015625)"/>
       <path id="CMMI12-69" d="M 1811 913 
C 1811 945 1786 971 1747 971 
C 1690 971 1683 952 1651 843 
C 1485 262 1222 64 1011 64 
C 934 64 845 83 845 275 
C 845 447 922 639 992 830 
L 1440 2018 
C 1459 2069 1504 2184 1504 2305 
C 1504 2574 1312 2816 998 2816 
C 410 2816 173 1890 173 1839 
C 173 1814 198 1782 243 1782 
C 301 1782 307 1807 333 1896 
C 486 2428 730 2682 979 2682 
C 1037 2682 1146 2682 1146 2478 
C 1146 2312 1062 2101 1011 1961 
L 563 773 
C 525 671 486 568 486 453 
C 486 166 685 -64 992 -64 
C 1581 -64 1811 869 1811 913 
z
M 1760 4013 
C 1760 4109 1683 4224 1542 4224 
C 1395 4224 1229 4083 1229 3917 
C 1229 3758 1363 3707 1440 3707 
C 1613 3707 1760 3873 1760 4013 
z
" transform="scale(0.015625)"/>
       <path id="CMMI12-73" d="M 1459 1280 
C 1568 1261 1741 1223 1779 1216 
C 1862 1192 2150 1090 2150 783 
C 2150 586 1971 70 1229 70 
C 1094 70 614 70 486 436 
C 742 404 870 603 870 745 
C 870 880 781 950 653 950 
C 512 950 326 841 326 552 
C 326 173 710 -64 1222 -64 
C 2195 -64 2483 651 2483 984 
C 2483 1079 2483 1258 2278 1462 
C 2118 1616 1965 1648 1619 1718 
C 1446 1756 1171 1814 1171 2101 
C 1171 2229 1286 2689 1894 2689 
C 2163 2689 2426 2589 2490 2368 
C 2208 2368 2195 2125 2195 2119 
C 2195 1984 2317 1946 2374 1946 
C 2464 1946 2643 2015 2643 2281 
C 2643 2545 2400 2816 1901 2816 
C 1062 2816 838 2160 838 1899 
C 838 1414 1312 1312 1459 1280 
z
" transform="scale(0.015625)"/>
       <path id="CMMI12-6f" d="M 2918 1756 
C 2918 2363 2522 2816 1939 2816 
C 1094 2816 262 1897 262 996 
C 262 390 659 -64 1242 -64 
C 2093 -64 2918 856 2918 1756 
z
M 1248 64 
C 928 64 691 319 691 766 
C 691 1060 845 1712 1024 2031 
C 1312 2523 1670 2689 1933 2689 
C 2246 2689 2490 2433 2490 1986 
C 2490 1731 2355 1047 2112 658 
C 1850 230 1498 64 1248 64 
z
" transform="scale(0.015625)"/>
       <path id="CMMI12-6e" d="M 1318 1871 
C 1331 1910 1491 2229 1728 2433 
C 1894 2586 2112 2689 2362 2689 
C 2618 2689 2707 2497 2707 2242 
C 2707 1878 2445 1150 2317 805 
C 2259 651 2227 568 2227 453 
C 2227 166 2426 -64 2733 -64 
C 3328 -64 3552 875 3552 913 
C 3552 945 3526 971 3488 971 
C 3430 971 3424 952 3392 843 
C 3245 319 3002 64 2752 64 
C 2688 64 2586 64 2586 269 
C 2586 429 2656 621 2694 710 
C 2822 1063 3091 1780 3091 2145 
C 3091 2528 2867 2816 2381 2816 
C 1811 2816 1510 2415 1395 2255 
C 1376 2618 1114 2816 832 2816 
C 627 2816 486 2695 378 2478 
C 262 2248 173 1865 173 1839 
C 173 1814 198 1782 243 1782 
C 294 1782 301 1788 339 1935 
C 442 2325 557 2689 813 2689 
C 960 2689 1011 2586 1011 2395 
C 1011 2254 947 2005 902 1807 
L 723 1118 
C 698 996 627 709 595 594 
C 550 428 480 128 480 96 
C 480 6 550 -64 646 -64 
C 723 -64 813 -26 864 70 
C 877 102 934 326 966 453 
L 1107 1028 
L 1318 1871 
z
" transform="scale(0.015625)"/>
       <path id="CMR17-40" d="M 3501 2908 
C 3501 3029 3494 3029 3366 3029 
L 3187 3029 
C 3181 3029 3174 3035 3142 3081 
C 2874 3481 2541 3584 2298 3584 
C 1683 3584 1101 3023 1101 2208 
C 1101 1392 1690 832 2298 832 
C 2739 832 3040 1155 3155 1353 
C 3162 997 3456 832 3706 832 
C 4237 832 4307 1440 4307 2120 
C 4307 3712 3194 4454 2304 4454 
C 1229 4454 294 3493 294 2196 
C 294 980 1146 -64 2336 -64 
C 3379 -64 4301 373 4301 425 
C 4301 457 4294 457 4166 457 
C 4058 457 4045 457 4013 438 
C 3782 330 3162 38 2330 38 
C 1197 38 410 1063 410 2195 
C 410 3404 1280 4352 2298 4352 
C 2758 4352 3213 4168 3622 3744 
C 4032 3300 4192 2697 4192 2094 
C 4192 1619 4179 933 3731 933 
C 3526 933 3501 1195 3501 1367 
L 3501 2908 
z
M 3162 1723 
C 3162 1602 3162 1596 3085 1462 
C 2886 1099 2579 933 2304 933 
C 1830 933 1440 1500 1440 2208 
C 1440 2915 1830 3482 2304 3482 
C 2573 3482 2778 3329 2880 3233 
C 3034 3087 3162 2902 3162 2692 
L 3162 1723 
z
" transform="scale(0.015625)"/>
      </defs>
      <use xlink:href="#CMMI12-50" transform="scale(0.996264)"/>
      <use xlink:href="#CMMI12-72" transform="translate(76.425821 0)scale(0.996264)"/>
      <use xlink:href="#CMMI12-65" transform="translate(123.096433 0)scale(0.996264)"/>
      <use xlink:href="#CMMI12-63" transform="translate(168.308434 0)scale(0.996264)"/>
      <use xlink:href="#CMMI12-69" transform="translate(210.291667 0)scale(0.996264)"/>
      <use xlink:href="#CMMI12-73" transform="translate(243.570269 0)scale(0.996264)"/>
      <use xlink:href="#CMMI12-69" transform="translate(289.520317 0)scale(0.996264)"/>
      <use xlink:href="#CMMI12-6f" transform="translate(322.798919 0)scale(0.996264)"/>
      <use xlink:href="#CMMI12-6e" transform="translate(369.694228 0)scale(0.996264)"/>
      <use xlink:href="#CMR17-40" transform="translate(427.924276 0)scale(0.996264)"/>
      <use xlink:href="#CMR17-31" transform="translate(499.639064 0)scale(0.996264)"/>
      <use xlink:href="#CMR17-30" transform="translate(545.329541 0)scale(0.996264)"/>
      <path d="M 0 81.139863 
L 591.020018 81.139863 
L 591.020018 85.124813 
L 0 85.124813 
L 0 81.139863 
z
"/>
     </g>
    </g>
   </g>
   <g id="LineCollection_1">
    <path d="M 123.545455 42.11085 
L 123.545455 39.561411 
" clip-path="url(#p5d0a107a02)" style="fill: none; stroke: #000000; stroke-width: 1.5"/>
    <path d="M 144 49.317816 
L 144 41.624159 
" clip-path="url(#p5d0a107a02)" style="fill: none; stroke: #000000; stroke-width: 1.5"/>
    <path d="M 164.454545 49.121301 
L 164.454545 41.251311 
" clip-path="url(#p5d0a107a02)" style="fill: none; stroke: #000000; stroke-width: 1.5"/>
    <path d="M 184.909091 64.216911 
L 184.909091 51.523966 
" clip-path="url(#p5d0a107a02)" style="fill: none; stroke: #000000; stroke-width: 1.5"/>
    <path d="M 205.363636 40.169112 
L 205.363636 34.577661 
" clip-path="url(#p5d0a107a02)" style="fill: none; stroke: #000000; stroke-width: 1.5"/>
    <path d="M 225.818182 55.280135 
L 225.818182 44.265541 
" clip-path="url(#p5d0a107a02)" style="fill: none; stroke: #000000; stroke-width: 1.5"/>
    <path d="M 246.272727 89.202445 
L 246.272727 70.396921 
" clip-path="url(#p5d0a107a02)" style="fill: none; stroke: #000000; stroke-width: 1.5"/>
    <path d="M 266.727273 57.456548 
L 266.727273 42.15239 
" clip-path="url(#p5d0a107a02)" style="fill: none; stroke: #000000; stroke-width: 1.5"/>
    <path d="M 287.181818 52.585708 
L 287.181818 41.129274 
" clip-path="url(#p5d0a107a02)" style="fill: none; stroke: #000000; stroke-width: 1.5"/>
    <path d="M 307.636364 58.518491 
L 307.636364 51.718548 
" clip-path="url(#p5d0a107a02)" style="fill: none; stroke: #000000; stroke-width: 1.5"/>
    <path d="M 328.090909 91.240896 
L 328.090909 53.221158 
" clip-path="url(#p5d0a107a02)" style="fill: none; stroke: #000000; stroke-width: 1.5"/>
    <path d="M 348.545455 47.413015 
L 348.545455 40.176047 
" clip-path="url(#p5d0a107a02)" style="fill: none; stroke: #000000; stroke-width: 1.5"/>
    <path d="M 369 61.834438 
L 369 45.872101 
" clip-path="url(#p5d0a107a02)" style="fill: none; stroke: #000000; stroke-width: 1.5"/>
    <path d="M 389.454545 40.021098 
L 389.454545 33.84 
" clip-path="url(#p5d0a107a02)" style="fill: none; stroke: #000000; stroke-width: 1.5"/>
    <path d="M 409.909091 77.7089 
L 409.909091 52.835403 
" clip-path="url(#p5d0a107a02)" style="fill: none; stroke: #000000; stroke-width: 1.5"/>
    <path d="M 430.363636 93.027415 
L 430.363636 60.793975 
" clip-path="url(#p5d0a107a02)" style="fill: none; stroke: #000000; stroke-width: 1.5"/>
    <path d="M 450.818182 47.871213 
L 450.818182 42.121824 
" clip-path="url(#p5d0a107a02)" style="fill: none; stroke: #000000; stroke-width: 1.5"/>
    <path d="M 471.272727 42.89774 
L 471.272727 39.883372 
" clip-path="url(#p5d0a107a02)" style="fill: none; stroke: #000000; stroke-width: 1.5"/>
    <path d="M 491.727273 66.388838 
L 491.727273 48.150051 
" clip-path="url(#p5d0a107a02)" style="fill: none; stroke: #000000; stroke-width: 1.5"/>
    <path d="M 512.181818 47.564479 
L 512.181818 41.036783 
" clip-path="url(#p5d0a107a02)" style="fill: none; stroke: #000000; stroke-width: 1.5"/>
    <path d="M 532.636364 110.134827 
L 532.636364 77.659784 
" clip-path="url(#p5d0a107a02)" style="fill: none; stroke: #000000; stroke-width: 1.5"/>
    <path d="M 553.090909 76.771713 
L 553.090909 57.06224 
" clip-path="url(#p5d0a107a02)" style="fill: none; stroke: #000000; stroke-width: 1.5"/>
    <path d="M 573.545455 75.261601 
L 573.545455 56.041852 
" clip-path="url(#p5d0a107a02)" style="fill: none; stroke: #000000; stroke-width: 1.5"/>
    <path d="M 594 54.470537 
L 594 40.736134 
" clip-path="url(#p5d0a107a02)" style="fill: none; stroke: #000000; stroke-width: 1.5"/>
    <path d="M 614.454545 78.98411 
L 614.454545 55.862043 
" clip-path="url(#p5d0a107a02)" style="fill: none; stroke: #000000; stroke-width: 1.5"/>
   </g>
   <g id="line2d_32">
    <defs>
     <path id="m31f976e839" d="M 6 0 
L -6 -0 
" style="stroke: #000000"/>
    </defs>
    <g clip-path="url(#p5d0a107a02)">
     <use xlink:href="#m31f976e839" x="123.545455" y="42.11085" style="stroke: #000000"/>
     <use xlink:href="#m31f976e839" x="144" y="49.317816" style="stroke: #000000"/>
     <use xlink:href="#m31f976e839" x="164.454545" y="49.121301" style="stroke: #000000"/>
     <use xlink:href="#m31f976e839" x="184.909091" y="64.216911" style="stroke: #000000"/>
     <use xlink:href="#m31f976e839" x="205.363636" y="40.169112" style="stroke: #000000"/>
     <use xlink:href="#m31f976e839" x="225.818182" y="55.280135" style="stroke: #000000"/>
     <use xlink:href="#m31f976e839" x="246.272727" y="89.202445" style="stroke: #000000"/>
     <use xlink:href="#m31f976e839" x="266.727273" y="57.456548" style="stroke: #000000"/>
     <use xlink:href="#m31f976e839" x="287.181818" y="52.585708" style="stroke: #000000"/>
     <use xlink:href="#m31f976e839" x="307.636364" y="58.518491" style="stroke: #000000"/>
     <use xlink:href="#m31f976e839" x="328.090909" y="91.240896" style="stroke: #000000"/>
     <use xlink:href="#m31f976e839" x="348.545455" y="47.413015" style="stroke: #000000"/>
     <use xlink:href="#m31f976e839" x="369" y="61.834438" style="stroke: #000000"/>
     <use xlink:href="#m31f976e839" x="389.454545" y="40.021098" style="stroke: #000000"/>
     <use xlink:href="#m31f976e839" x="409.909091" y="77.7089" style="stroke: #000000"/>
     <use xlink:href="#m31f976e839" x="430.363636" y="93.027415" style="stroke: #000000"/>
     <use xlink:href="#m31f976e839" x="450.818182" y="47.871213" style="stroke: #000000"/>
     <use xlink:href="#m31f976e839" x="471.272727" y="42.89774" style="stroke: #000000"/>
     <use xlink:href="#m31f976e839" x="491.727273" y="66.388838" style="stroke: #000000"/>
     <use xlink:href="#m31f976e839" x="512.181818" y="47.564479" style="stroke: #000000"/>
     <use xlink:href="#m31f976e839" x="532.636364" y="110.134827" style="stroke: #000000"/>
     <use xlink:href="#m31f976e839" x="553.090909" y="76.771713" style="stroke: #000000"/>
     <use xlink:href="#m31f976e839" x="573.545455" y="75.261601" style="stroke: #000000"/>
     <use xlink:href="#m31f976e839" x="594" y="54.470537" style="stroke: #000000"/>
     <use xlink:href="#m31f976e839" x="614.454545" y="78.98411" style="stroke: #000000"/>
    </g>
   </g>
   <g id="line2d_33">
    <g clip-path="url(#p5d0a107a02)">
     <use xlink:href="#m31f976e839" x="123.545455" y="39.561411" style="stroke: #000000"/>
     <use xlink:href="#m31f976e839" x="144" y="41.624159" style="stroke: #000000"/>
     <use xlink:href="#m31f976e839" x="164.454545" y="41.251311" style="stroke: #000000"/>
     <use xlink:href="#m31f976e839" x="184.909091" y="51.523966" style="stroke: #000000"/>
     <use xlink:href="#m31f976e839" x="205.363636" y="34.577661" style="stroke: #000000"/>
     <use xlink:href="#m31f976e839" x="225.818182" y="44.265541" style="stroke: #000000"/>
     <use xlink:href="#m31f976e839" x="246.272727" y="70.396921" style="stroke: #000000"/>
     <use xlink:href="#m31f976e839" x="266.727273" y="42.15239" style="stroke: #000000"/>
     <use xlink:href="#m31f976e839" x="287.181818" y="41.129274" style="stroke: #000000"/>
     <use xlink:href="#m31f976e839" x="307.636364" y="51.718548" style="stroke: #000000"/>
     <use xlink:href="#m31f976e839" x="328.090909" y="53.221158" style="stroke: #000000"/>
     <use xlink:href="#m31f976e839" x="348.545455" y="40.176047" style="stroke: #000000"/>
     <use xlink:href="#m31f976e839" x="369" y="45.872101" style="stroke: #000000"/>
     <use xlink:href="#m31f976e839" x="389.454545" y="33.84" style="stroke: #000000"/>
     <use xlink:href="#m31f976e839" x="409.909091" y="52.835403" style="stroke: #000000"/>
     <use xlink:href="#m31f976e839" x="430.363636" y="60.793975" style="stroke: #000000"/>
     <use xlink:href="#m31f976e839" x="450.818182" y="42.121824" style="stroke: #000000"/>
     <use xlink:href="#m31f976e839" x="471.272727" y="39.883372" style="stroke: #000000"/>
     <use xlink:href="#m31f976e839" x="491.727273" y="48.150051" style="stroke: #000000"/>
     <use xlink:href="#m31f976e839" x="512.181818" y="41.036783" style="stroke: #000000"/>
     <use xlink:href="#m31f976e839" x="532.636364" y="77.659784" style="stroke: #000000"/>
     <use xlink:href="#m31f976e839" x="553.090909" y="57.06224" style="stroke: #000000"/>
     <use xlink:href="#m31f976e839" x="573.545455" y="56.041852" style="stroke: #000000"/>
     <use xlink:href="#m31f976e839" x="594" y="40.736134" style="stroke: #000000"/>
     <use xlink:href="#m31f976e839" x="614.454545" y="55.862043" style="stroke: #000000"/>
    </g>
   </g>
   <g id="patch_28">
    <path d="M 90 192.24 
L 90 25.92 
" style="fill: none; stroke: #000000; stroke-width: 0.8; stroke-linejoin: miter; stroke-linecap: square"/>
   </g>
   <g id="patch_29">
    <path d="M 648 192.24 
L 648 25.92 
" style="fill: none; stroke: #000000; stroke-width: 0.8; stroke-linejoin: miter; stroke-linecap: square"/>
   </g>
   <g id="patch_30">
    <path d="M 90 192.24 
L 648 192.24 
" style="fill: none; stroke: #000000; stroke-width: 0.8; stroke-linejoin: miter; stroke-linecap: square"/>
   </g>
   <g id="patch_31">
    <path d="M 90 25.92 
L 648 25.92 
" style="fill: none; stroke: #000000; stroke-width: 0.8; stroke-linejoin: miter; stroke-linecap: square"/>
   </g>
   <g id="legend_1">
    <g id="patch_32">
     <path d="M 98.4 186.24 
L 238.656599 186.24 
Q 241.056599 186.24 241.056599 183.84 
L 241.056599 167.975641 
Q 241.056599 165.575641 238.656599 165.575641 
L 98.4 165.575641 
Q 96 165.575641 96 167.975641 
L 96 183.84 
Q 96 186.24 98.4 186.24 
z
" style="fill: #ffffff; opacity: 0.8; stroke: #cccccc; stroke-linejoin: miter"/>
    </g>
    <g id="PathCollection_3">
     <g>
      <use xlink:href="#me4318d3083" x="112.8" y="175.743625" style="fill: #ff7f0e; stroke: #ff7f0e; stroke-width: 1.5"/>
     </g>
    </g>
    <g id="text_33">
     <!-- $min$ -->
     <g transform="translate(134.4 178.893625)scale(0.12 -0.12)">
      <defs>
       <path id="CMMI12-6d" d="M 1318 1871 
C 1331 1910 1491 2229 1728 2433 
C 1894 2586 2112 2689 2362 2689 
C 2618 2689 2707 2497 2707 2242 
C 2707 2203 2707 2076 2630 1775 
L 2470 1118 
C 2419 926 2298 453 2285 383 
C 2259 287 2221 121 2221 96 
C 2221 6 2291 -64 2387 -64 
C 2579 -64 2611 83 2669 313 
L 3053 1839 
C 3066 1890 3398 2689 4102 2689 
C 4358 2689 4448 2497 4448 2242 
C 4448 1884 4198 1188 4058 805 
C 4000 651 3968 568 3968 453 
C 3968 166 4166 -64 4474 -64 
C 5069 -64 5293 875 5293 913 
C 5293 945 5267 971 5229 971 
C 5171 971 5165 952 5133 843 
C 4986 332 4749 64 4493 64 
C 4429 64 4326 64 4326 269 
C 4326 436 4403 640 4429 710 
C 4544 1018 4832 1773 4832 2145 
C 4832 2528 4608 2816 4122 2816 
C 3693 2816 3347 2574 3091 2197 
C 3072 2542 2861 2816 2381 2816 
C 1811 2816 1510 2415 1395 2255 
C 1376 2618 1114 2816 832 2816 
C 646 2816 499 2727 378 2484 
C 262 2254 173 1865 173 1839 
C 173 1814 198 1782 243 1782 
C 294 1782 301 1788 339 1935 
C 435 2312 557 2689 813 2689 
C 960 2689 1011 2586 1011 2395 
C 1011 2254 947 2005 902 1807 
L 723 1118 
C 698 996 627 709 595 594 
C 550 428 480 128 480 96 
C 480 6 550 -64 646 -64 
C 723 -64 813 -26 864 70 
C 877 102 934 326 966 453 
L 1107 1028 
L 1318 1871 
z
" transform="scale(0.015625)"/>
      </defs>
      <use xlink:href="#CMMI12-6d" transform="scale(0.996264)"/>
      <use xlink:href="#CMMI12-69" transform="translate(85.327224 0)scale(0.996264)"/>
      <use xlink:href="#CMMI12-6e" transform="translate(118.605826 0)scale(0.996264)"/>
     </g>
    </g>
    <g id="PathCollection_4">
     <g>
      <use xlink:href="#mc611d223dd" x="191.620305" y="175.743625" style="fill: #2ca02c; stroke: #2ca02c; stroke-width: 1.5"/>
     </g>
    </g>
    <g id="text_34">
     <!-- $max$ -->
     <g transform="translate(213.220305 178.893625)scale(0.12 -0.12)">
      <defs>
       <path id="CMMI12-61" d="M 1926 760 
C 1894 651 1894 639 1805 517 
C 1664 338 1382 64 1082 64 
C 819 64 672 300 672 677 
C 672 1028 870 1743 992 2012 
C 1210 2459 1510 2689 1760 2689 
C 2182 2689 2266 2165 2266 2114 
C 2266 2108 2246 2024 2240 2012 
L 1926 760 
z
M 2336 2395 
C 2266 2561 2093 2816 1760 2816 
C 1037 2816 256 1884 256 939 
C 256 307 627 -64 1062 -64 
C 1414 -64 1715 211 1894 422 
C 1958 45 2259 -64 2451 -64 
C 2643 -64 2797 51 2912 281 
C 3014 498 3104 888 3104 913 
C 3104 945 3078 971 3040 971 
C 2982 971 2976 939 2950 843 
C 2854 466 2733 64 2470 64 
C 2285 64 2272 230 2272 358 
C 2272 505 2291 575 2349 824 
C 2394 984 2426 1124 2477 1309 
C 2714 2267 2771 2497 2771 2535 
C 2771 2625 2701 2695 2605 2695 
C 2400 2695 2349 2472 2336 2395 
z
" transform="scale(0.015625)"/>
       <path id="CMMI12-78" d="M 3034 2606 
C 2829 2567 2752 2414 2752 2293 
C 2752 2139 2874 2088 2963 2088 
C 3155 2088 3290 2254 3290 2427 
C 3290 2695 2982 2816 2714 2816 
C 2323 2816 2106 2433 2048 2312 
C 1901 2816 1504 2816 1389 2816 
C 736 2816 390 1980 390 1839 
C 390 1814 416 1782 461 1782 
C 512 1782 525 1820 538 1846 
C 755 2555 1184 2689 1370 2689 
C 1658 2689 1715 2420 1715 2267 
C 1715 2127 1677 1980 1600 1673 
L 1382 798 
C 1286 415 1101 64 762 64 
C 730 64 570 64 435 147 
C 666 192 717 383 717 460 
C 717 588 621 664 499 664 
C 346 664 179 530 179 326 
C 179 57 480 -64 755 -64 
C 1062 -64 1280 179 1414 441 
C 1517 64 1837 -64 2074 -64 
C 2726 -64 3072 773 3072 913 
C 3072 945 3046 971 3008 971 
C 2950 971 2944 939 2925 888 
C 2752 326 2381 64 2093 64 
C 1869 64 1747 230 1747 492 
C 1747 632 1773 734 1875 1156 
L 2099 2024 
C 2195 2408 2413 2689 2707 2689 
C 2720 2689 2899 2689 3034 2606 
z
" transform="scale(0.015625)"/>
      </defs>
      <use xlink:href="#CMMI12-6d" transform="scale(0.996264)"/>
      <use xlink:href="#CMMI12-61" transform="translate(85.327224 0)scale(0.996264)"/>
      <use xlink:href="#CMMI12-78" transform="translate(136.535082 0)scale(0.996264)"/>
     </g>
    </g>
   </g>
  </g>
 </g>
 <defs>
  <clipPath id="p5d0a107a02">
   <rect x="90" y="25.92" width="558" height="166.32"/>
  </clipPath>
 </defs>
</svg>
